<svg width="293" height="262" viewBox="0 0 293 262" fill="none" xmlns="http://www.w3.org/2000/svg">
<path d="M203.801 57.2945C203.801 92.298 194.071 99.0516 146.396 99.0516C98.721 99.0516 88.9913 92.298 88.9913 57.2945C88.9913 25.6516 114.692 0 146.396 0C178.1 0 203.801 25.6516 203.801 57.2945Z" fill="#D29A63" style="fill:#D29A63;fill:color(display-p3 0.8250 0.6051 0.3884);fill-opacity:1;"/>
<path fill-rule="evenodd" clip-rule="evenodd" d="M203.748 54.7993C202.918 86.0993 192.071 92.298 146.396 92.298C100.721 92.298 89.8746 86.0993 89.0448 54.7992C89.0093 55.6265 88.9913 56.4584 88.9913 57.2945C88.9913 92.298 98.721 99.0515 146.396 99.0515C194.071 99.0515 203.801 92.298 203.801 57.2945C203.801 56.4585 203.783 55.6266 203.748 54.7993Z" fill="#B48252" style="fill:#B48252;fill:color(display-p3 0.7042 0.5103 0.3198);fill-opacity:1;"/>
<ellipse cx="162.062" cy="59.6561" rx="25.9807" ry="28.1396" fill="#624428" style="fill:#624428;fill:color(display-p3 0.3833 0.2681 0.1549);fill-opacity:1;"/>
<path opacity="0.2" fill-rule="evenodd" clip-rule="evenodd" d="M163.286 87.7651C165.867 78.8937 167.258 69.4509 167.258 59.656C167.258 49.8612 165.867 40.4185 163.286 31.5471C162.88 31.5267 162.472 31.5164 162.062 31.5164C147.713 31.5164 136.081 44.115 136.081 59.6561C136.081 75.1972 147.713 87.7957 162.062 87.7957C162.472 87.7957 162.88 87.7854 163.286 87.7651Z" fill="url(#paint0_linear_605_18178)" style=""/>
<path fill-rule="evenodd" clip-rule="evenodd" d="M157.905 87.4375C170.278 85.2825 179.729 73.6647 179.729 59.6561C179.729 45.6474 170.278 34.0296 157.905 31.8747C159.259 31.6389 160.647 31.5164 162.062 31.5164C176.411 31.5164 188.043 44.115 188.043 59.6561C188.043 75.1972 176.411 87.7957 162.062 87.7957C160.647 87.7957 159.259 87.6732 157.905 87.4375Z" fill="#99724D" style="fill:#99724D;fill:color(display-p3 0.6000 0.4486 0.3000);fill-opacity:1;"/>
<path d="M17.1307 158.117C12.4031 159.943 6.9958 162.161 1.74608 164.567C-0.867661 165.765 -0.0690432 170.557 2.49887 171.85C5.06435 173.142 7.45003 174.877 10.0106 176.887C11.4377 178.007 11.5171 180.32 10.3851 181.737C7.67809 185.128 3.65347 191.375 1.54879 199.008C0.895466 201.377 3.59974 202.949 5.63117 201.565C12.373 196.974 19.2713 193.67 25.724 191.353L17.7018 161.332C17.4167 160.265 17.2277 159.19 17.1307 158.117Z" fill="#E8CB82" style="fill:#E8CB82;fill:color(display-p3 0.9098 0.7961 0.5098);fill-opacity:1;"/>
<path d="M2.75665 164.107C2.41925 164.26 2.08228 164.413 1.74596 164.567C-0.867784 165.765 -0.0691648 170.557 2.49875 171.85C5.06423 173.142 7.44991 174.877 10.0105 176.887C11.3035 177.902 11.4902 179.896 10.6718 181.316C11.5306 180.187 12.4289 178.925 13.2421 177.709C14.0944 176.436 13.6809 174.713 12.4218 173.839C12.2636 173.73 12.1027 173.618 11.9391 173.504L11.9367 173.502C10.025 172.172 7.74211 170.583 5.14616 169.252C3.56897 168.444 2.64439 166.107 2.75665 164.107Z" fill="#D2B875" style="fill:#D2B875;fill:color(display-p3 0.8235 0.7216 0.4588);fill-opacity:1;"/>
<path d="M2.28908 196.599C2.02281 197.385 1.77467 198.188 1.54867 199.008C0.895344 201.377 3.59962 202.949 5.63105 201.565C12.373 196.974 19.2712 193.67 25.7239 191.353L24.5385 186.917C18.4304 189.206 11.9618 192.382 5.63113 196.694C4.48252 197.476 3.11826 197.311 2.28908 196.599Z" fill="#D2B875" style="fill:#D2B875;fill:color(display-p3 0.8235 0.7216 0.4588);fill-opacity:1;"/>
<path d="M278.015 159.126C277.989 159.192 277.963 159.258 277.936 159.324C275.082 166.379 271.118 176.3 265.408 190.852C272.266 193.185 279.691 196.632 286.935 201.565C288.967 202.949 291.671 201.377 291.018 199.008C288.913 191.375 284.888 185.128 282.181 181.737C281.049 180.32 281.129 178.007 282.556 176.887C285.116 174.877 287.502 173.142 290.067 171.85C292.635 170.557 293.434 165.765 290.82 164.567C286.503 162.589 282.079 160.737 278.015 159.126Z" fill="#E8CB82" style="fill:#E8CB82;fill:color(display-p3 0.9083 0.7971 0.5109);fill-opacity:1;"/>
<path d="M289.81 164.107C290.147 164.26 290.484 164.413 290.82 164.567C293.434 165.765 292.636 170.557 290.068 171.85C287.502 173.142 285.116 174.877 282.556 176.887C281.263 177.902 281.076 179.896 281.895 181.316C281.036 180.187 280.137 178.925 279.324 177.709C278.472 176.436 278.885 174.713 280.145 173.839C280.304 173.729 280.465 173.617 280.63 173.502C282.541 172.172 284.824 170.583 287.42 169.252C288.997 168.444 289.922 166.107 289.81 164.107Z" fill="#D2B875" style="fill:#D2B875;fill:color(display-p3 0.8250 0.7204 0.4572);fill-opacity:1;"/>
<path d="M290.277 196.599C290.544 197.385 290.792 198.188 291.018 199.008C291.671 201.377 288.967 202.949 286.935 201.565C279.691 196.632 272.266 193.185 265.408 190.852C265.986 189.378 266.547 187.952 267.09 186.571C273.471 188.883 280.279 192.161 286.935 196.694C288.084 197.476 289.448 197.311 290.277 196.599Z" fill="#D2B875" style="fill:#D2B875;fill:color(display-p3 0.8250 0.7204 0.4572);fill-opacity:1;"/>
<path d="M30.5416 143.604C109.84 114.843 209.746 126.185 264.753 138.89C272.78 140.744 277.025 149.344 273.855 157.164C270.714 164.912 266.24 176.097 259.597 193.035C257.068 199.483 250.189 203.197 243.288 201.926C157.864 186.19 88.6998 195.389 51.8145 205.587C43.2631 207.952 34.1267 203.231 31.9223 194.997L22.4855 159.749C20.6649 152.949 24.0984 145.941 30.5416 143.604Z" fill="#DBC07A" style="fill:#DBC07A;fill:color(display-p3 0.8583 0.7522 0.4792);fill-opacity:1;"/>
<path d="M30.1131 188.438L20.6339 152.708C18.5291 144.775 22.4971 136.435 30.2039 133.611C110.126 104.328 210.577 115.915 265.664 128.768C275.243 131.003 280.158 141.24 276.49 150.367C273.352 158.177 268.866 169.493 262.173 186.714C259.207 194.345 251.123 198.682 243.073 197.187C158.231 181.424 89.5969 190.648 53.1042 200.819C43.3699 203.532 32.7044 198.205 30.1131 188.438Z" fill="#FFE091" style="fill:#FFE091;fill:color(display-p3 1.0000 0.8787 0.5667);fill-opacity:1;"/>
<mask id="path-12-outside-1_605_18178" maskUnits="userSpaceOnUse" x="61.134" y="133.174" width="170" height="46" fill="black">
<rect fill="white" x="61.134" y="133.174" width="170" height="46"/>
<path d="M70.7965 153.17C71.1615 153.109 71.4352 153.063 71.6177 153.033C74.6591 152.599 76.9766 152.212 78.5702 151.87C80.8511 151.376 82.6849 150.788 84.0715 150.106C85.4642 149.461 86.428 148.718 86.9629 147.878C87.4978 147.038 87.6736 145.958 87.4904 144.639C87.2767 143.136 86.4975 142.066 85.1527 141.428C83.5281 140.687 81.3806 140.52 78.7103 140.929C75.7115 141.393 72.7432 141.927 69.8053 142.531C69.5498 142.574 69.2944 142.617 69.0389 142.659C69.4052 145.074 69.9911 148.578 70.7965 153.17ZM74.073 171.418C74.657 171.32 75.5755 171.204 76.8285 171.07C79.1765 170.752 80.9892 170.487 82.2665 170.273C86.0134 169.571 88.726 168.63 90.4044 167.449C92.107 166.189 92.7904 164.443 92.4546 162.21C92.2348 160.671 91.7445 159.534 90.9837 158.798C90.3446 158.117 89.4014 157.637 88.1542 157.358C86.907 157.079 85.3375 157.004 83.4457 157.133C81.9553 157.194 79.9875 157.43 77.5423 157.838C77.1408 157.906 76.5569 158.003 75.7905 158.131C74.0326 158.388 72.7156 158.589 71.8397 158.736C71.8886 159.028 71.9404 159.338 71.9954 159.666C73.1058 165.858 73.7984 169.776 74.073 171.418ZM90.5604 152.229C94.7647 153.589 97.2239 156.629 97.9382 161.35C98.6524 165.845 97.2156 169.368 93.6278 171.919C91.2867 173.623 87.823 174.896 83.2367 175.738C81.8498 175.97 79.9429 176.233 77.5158 176.526C74.9124 176.886 73.2123 177.152 72.4155 177.323C71.9045 177.408 71.4118 177.378 70.9372 177.232C70.42 177.056 69.9788 176.773 69.6136 176.384C69.2423 175.959 69.0261 175.451 68.965 174.861C68.8488 173.717 68.0402 168.994 66.5392 160.691C66.2403 159.128 66.0054 157.835 65.8346 156.814C64.4496 149.204 63.5738 143.967 63.2073 141.102C63.1951 141.029 63.1737 140.901 63.1432 140.719C63.1371 140.682 63.134 140.664 63.134 140.664C63.1705 140.658 63.1857 140.637 63.1796 140.6C63.0576 139.87 63.2275 139.204 63.6895 138.602C64.188 137.993 64.8205 137.625 65.5869 137.496C65.8485 137.49 66.1314 137.499 66.4355 137.523C67.1229 137.371 67.8862 137.224 68.7256 137.084C71.7365 136.468 74.7961 135.919 77.9044 135.437C81.6757 134.881 84.8817 135.208 87.5225 136.417C90.6622 137.918 92.4825 140.39 92.9831 143.833C93.3617 146.545 92.9129 148.909 91.6365 150.923C91.3021 151.392 90.9435 151.827 90.5604 152.229Z"/>
<path d="M126.854 160.811C126.678 159.747 126.55 158.568 126.471 157.275C125.455 157.634 124.192 157.897 122.682 158.063C122.202 158.093 121.537 158.134 120.688 158.185C120.171 158.217 119.801 158.24 119.58 158.253C117.735 158.403 116.137 158.946 114.786 159.881C113.649 160.692 113.054 161.563 113 162.493C112.961 163.682 113.352 164.622 114.173 165.313C115.072 166.073 116.224 166.411 117.627 166.325C119.437 166.214 121.2 165.643 122.916 164.611C124.633 163.579 125.945 162.312 126.854 160.811ZM109.056 146.219C109.223 145.912 109.445 145.602 109.722 145.288C110.242 144.7 110.84 144.163 111.514 143.677C113.605 142.103 116.129 141.245 119.086 141.101C120.859 140.992 122.401 141.046 123.711 141.262C125.361 141.569 126.769 142.15 127.933 143.006C130.53 144.849 131.795 147.96 131.73 152.338C131.674 156.271 131.909 159.204 132.435 161.137C133.003 163.141 133.947 164.343 135.269 164.744C135.987 164.96 136.514 165.391 136.85 166.038C137.223 166.682 137.302 167.363 137.086 168.081C136.908 168.796 136.496 169.341 135.852 169.714C135.205 170.05 134.523 170.11 133.805 169.894C132.033 169.41 130.585 168.46 129.46 167.046C129.34 166.905 129.219 166.746 129.097 166.568C127.63 168.03 125.924 169.228 123.979 170.162C122.032 171.06 120.043 171.571 118.011 171.695C115.096 171.911 112.601 171.118 110.526 169.317C108.485 167.477 107.527 165.145 107.651 162.32C107.744 159.608 109.07 157.34 111.627 155.515C113.794 153.973 116.299 153.097 119.14 152.886C119.436 152.868 119.86 152.842 120.414 152.808C121.19 152.761 121.781 152.725 122.187 152.7C123.588 152.577 124.611 152.329 125.256 151.956C125.757 151.666 126.06 151.165 126.165 150.454C126.195 150.341 126.225 150.228 126.255 150.115C126.152 149.64 126.032 149.202 125.897 148.803C125.637 148.188 125.274 147.71 124.808 147.368C123.798 146.614 121.982 146.317 119.36 146.478C117.474 146.556 115.929 147.059 114.725 147.985C114.369 148.229 114.053 148.508 113.775 148.822C113.706 148.9 113.654 148.959 113.619 148.998C113.249 149.614 112.699 150.018 111.97 150.211C111.24 150.404 110.549 150.317 109.896 149.949C109.278 149.542 108.873 148.973 108.68 148.244C108.524 147.512 108.649 146.837 109.056 146.219Z"/>
<path d="M160.808 144.649C159.917 144.858 158.948 145.307 157.902 145.995C156.482 146.936 155.355 148.086 154.522 149.443C153.537 150.983 153.05 152.66 153.061 154.473C153.061 154.51 153.06 154.547 153.06 154.584C153.045 155.62 153.029 156.712 153.012 157.859C153.001 158.636 152.978 160.245 152.943 162.687C152.944 165.13 152.944 166.443 152.941 166.628C152.931 167.368 152.662 168.012 152.136 168.56C151.611 169.07 150.978 169.32 150.238 169.309C149.498 169.299 148.854 169.03 148.307 168.504C147.796 167.979 147.546 167.346 147.557 166.606C147.56 166.421 147.56 165.107 147.558 162.665C147.594 160.223 147.617 158.595 147.629 157.781C147.67 154.969 147.688 152.416 147.684 150.121C147.734 146.681 147.776 143.739 147.811 141.297C147.822 140.557 148.09 139.932 148.616 139.421C149.142 138.874 149.775 138.606 150.515 138.616C151.255 138.627 151.88 138.913 152.39 139.476C152.937 140.002 153.205 140.635 153.195 141.375C153.188 141.856 153.181 142.355 153.173 142.873C153.735 142.4 154.315 141.965 154.913 141.566C156.744 140.334 158.513 139.583 160.219 139.311C161.257 139.141 162.182 139.192 162.992 139.462C164.391 140.001 165.172 140.993 165.336 142.438C165.436 143.18 165.242 143.843 164.752 144.428C164.3 145.014 163.703 145.338 162.962 145.402C162.146 145.501 161.428 145.25 160.808 144.649Z"/>
<path d="M190.453 146.075C189.551 146.23 188.557 146.619 187.471 147.242C185.997 148.096 184.803 149.175 183.888 150.48C182.812 151.957 182.225 153.601 182.126 155.412C182.123 155.449 182.12 155.486 182.117 155.523C182.04 156.556 181.958 157.645 181.872 158.788C181.813 159.563 181.693 161.168 181.51 163.604C181.363 166.042 181.283 167.353 181.269 167.538C181.214 168.276 180.907 168.902 180.349 169.416C179.793 169.894 179.147 170.105 178.409 170.05C177.671 169.994 177.044 169.687 176.53 169.129C176.052 168.574 175.841 167.927 175.896 167.189C175.91 167.005 175.99 165.693 176.137 163.255C176.32 160.82 176.442 159.196 176.503 158.385C176.714 155.58 176.887 153.033 177.022 150.742C177.28 147.311 177.501 144.377 177.684 141.942C177.739 141.204 178.045 140.596 178.6 140.119C179.159 139.604 179.807 139.374 180.545 139.43C181.283 139.485 181.889 139.809 182.364 140.402C182.879 140.96 183.108 141.608 183.053 142.346C183.017 142.826 182.979 143.324 182.94 143.84C183.53 143.402 184.135 143.002 184.756 142.641C186.658 141.522 188.469 140.879 190.189 140.712C191.236 140.605 192.156 140.711 192.948 141.031C194.311 141.653 195.031 142.69 195.107 144.143C195.162 144.889 194.928 145.54 194.404 146.094C193.917 146.651 193.301 146.939 192.558 146.957C191.738 147.007 191.036 146.713 190.453 146.075Z"/>
<path d="M217.982 143.897C218.208 143.891 218.43 143.904 218.65 143.935C222.989 144.701 226.151 146.906 228.138 150.552C229.92 153.794 230.421 157.509 229.64 161.697C228.884 165.7 227.166 168.858 224.483 171.168C221.492 173.808 217.948 174.818 213.85 174.2C209.789 173.586 206.655 171.702 204.449 168.549C202.285 165.364 201.486 161.644 202.053 157.389C202.661 153.102 204.199 149.77 206.667 147.392C209.49 144.616 213.262 143.451 217.982 143.897ZM217.94 149.329C214.633 148.934 212.111 149.585 210.375 151.282C208.854 152.785 207.877 155.057 207.446 158.098C207.04 160.956 207.5 163.376 208.826 165.358C210.12 167.298 212.066 168.471 214.661 168.877C217.111 169.262 219.19 168.697 220.9 167.183C222.652 165.638 223.799 163.484 224.34 160.72C224.866 157.805 224.552 155.275 223.399 153.131C222.335 151.148 220.607 149.894 218.215 149.368C218.105 149.352 218.014 149.339 217.94 149.329Z"/>
</mask>
<path d="M70.7965 153.17C71.1615 153.109 71.4352 153.063 71.6177 153.033C74.6591 152.599 76.9766 152.212 78.5702 151.87C80.8511 151.376 82.6849 150.788 84.0715 150.106C85.4642 149.461 86.428 148.718 86.9629 147.878C87.4978 147.038 87.6736 145.958 87.4904 144.639C87.2767 143.136 86.4975 142.066 85.1527 141.428C83.5281 140.687 81.3806 140.52 78.7103 140.929C75.7115 141.393 72.7432 141.927 69.8053 142.531C69.5498 142.574 69.2944 142.617 69.0389 142.659C69.4052 145.074 69.9911 148.578 70.7965 153.17ZM74.073 171.418C74.657 171.32 75.5755 171.204 76.8285 171.07C79.1765 170.752 80.9892 170.487 82.2665 170.273C86.0134 169.571 88.726 168.63 90.4044 167.449C92.107 166.189 92.7904 164.443 92.4546 162.21C92.2348 160.671 91.7445 159.534 90.9837 158.798C90.3446 158.117 89.4014 157.637 88.1542 157.358C86.907 157.079 85.3375 157.004 83.4457 157.133C81.9553 157.194 79.9875 157.43 77.5423 157.838C77.1408 157.906 76.5569 158.003 75.7905 158.131C74.0326 158.388 72.7156 158.589 71.8397 158.736C71.8886 159.028 71.9404 159.338 71.9954 159.666C73.1058 165.858 73.7984 169.776 74.073 171.418ZM90.5604 152.229C94.7647 153.589 97.2239 156.629 97.9382 161.35C98.6524 165.845 97.2156 169.368 93.6278 171.919C91.2867 173.623 87.823 174.896 83.2367 175.738C81.8498 175.97 79.9429 176.233 77.5158 176.526C74.9124 176.886 73.2123 177.152 72.4155 177.323C71.9045 177.408 71.4118 177.378 70.9372 177.232C70.42 177.056 69.9788 176.773 69.6136 176.384C69.2423 175.959 69.0261 175.451 68.965 174.861C68.8488 173.717 68.0402 168.994 66.5392 160.691C66.2403 159.128 66.0054 157.835 65.8346 156.814C64.4496 149.204 63.5738 143.967 63.2073 141.102C63.1951 141.029 63.1737 140.901 63.1432 140.719C63.1371 140.682 63.134 140.664 63.134 140.664C63.1705 140.658 63.1857 140.637 63.1796 140.6C63.0576 139.87 63.2275 139.204 63.6895 138.602C64.188 137.993 64.8205 137.625 65.5869 137.496C65.8485 137.49 66.1314 137.499 66.4355 137.523C67.1229 137.371 67.8862 137.224 68.7256 137.084C71.7365 136.468 74.7961 135.919 77.9044 135.437C81.6757 134.881 84.8817 135.208 87.5225 136.417C90.6622 137.918 92.4825 140.39 92.9831 143.833C93.3617 146.545 92.9129 148.909 91.6365 150.923C91.3021 151.392 90.9435 151.827 90.5604 152.229Z" fill="#D29A63" style="fill:#D29A63;fill:color(display-p3 0.8250 0.6051 0.3884);fill-opacity:1;"/>
<path d="M126.854 160.811C126.678 159.747 126.55 158.568 126.471 157.275C125.455 157.634 124.192 157.897 122.682 158.063C122.202 158.093 121.537 158.134 120.688 158.185C120.171 158.217 119.801 158.24 119.58 158.253C117.735 158.403 116.137 158.946 114.786 159.881C113.649 160.692 113.054 161.563 113 162.493C112.961 163.682 113.352 164.622 114.173 165.313C115.072 166.073 116.224 166.411 117.627 166.325C119.437 166.214 121.2 165.643 122.916 164.611C124.633 163.579 125.945 162.312 126.854 160.811ZM109.056 146.219C109.223 145.912 109.445 145.602 109.722 145.288C110.242 144.7 110.84 144.163 111.514 143.677C113.605 142.103 116.129 141.245 119.086 141.101C120.859 140.992 122.401 141.046 123.711 141.262C125.361 141.569 126.769 142.15 127.933 143.006C130.53 144.849 131.795 147.96 131.73 152.338C131.674 156.271 131.909 159.204 132.435 161.137C133.003 163.141 133.947 164.343 135.269 164.744C135.987 164.96 136.514 165.391 136.85 166.038C137.223 166.682 137.302 167.363 137.086 168.081C136.908 168.796 136.496 169.341 135.852 169.714C135.205 170.05 134.523 170.11 133.805 169.894C132.033 169.41 130.585 168.46 129.46 167.046C129.34 166.905 129.219 166.746 129.097 166.568C127.63 168.03 125.924 169.228 123.979 170.162C122.032 171.06 120.043 171.571 118.011 171.695C115.096 171.911 112.601 171.118 110.526 169.317C108.485 167.477 107.527 165.145 107.651 162.32C107.744 159.608 109.07 157.34 111.627 155.515C113.794 153.973 116.299 153.097 119.14 152.886C119.436 152.868 119.86 152.842 120.414 152.808C121.19 152.761 121.781 152.725 122.187 152.7C123.588 152.577 124.611 152.329 125.256 151.956C125.757 151.666 126.06 151.165 126.165 150.454C126.195 150.341 126.225 150.228 126.255 150.115C126.152 149.64 126.032 149.202 125.897 148.803C125.637 148.188 125.274 147.71 124.808 147.368C123.798 146.614 121.982 146.317 119.36 146.478C117.474 146.556 115.929 147.059 114.725 147.985C114.369 148.229 114.053 148.508 113.775 148.822C113.706 148.9 113.654 148.959 113.619 148.998C113.249 149.614 112.699 150.018 111.97 150.211C111.24 150.404 110.549 150.317 109.896 149.949C109.278 149.542 108.873 148.973 108.68 148.244C108.524 147.512 108.649 146.837 109.056 146.219Z" fill="#D29A63" style="fill:#D29A63;fill:color(display-p3 0.8250 0.6051 0.3884);fill-opacity:1;"/>
<path d="M160.808 144.649C159.917 144.858 158.948 145.307 157.902 145.995C156.482 146.936 155.355 148.086 154.522 149.443C153.537 150.983 153.05 152.66 153.061 154.473C153.061 154.51 153.06 154.547 153.06 154.584C153.045 155.62 153.029 156.712 153.012 157.859C153.001 158.636 152.978 160.245 152.943 162.687C152.944 165.13 152.944 166.443 152.941 166.628C152.931 167.368 152.662 168.012 152.136 168.56C151.611 169.07 150.978 169.32 150.238 169.309C149.498 169.299 148.854 169.03 148.307 168.504C147.796 167.979 147.546 167.346 147.557 166.606C147.56 166.421 147.56 165.107 147.558 162.665C147.594 160.223 147.617 158.595 147.629 157.781C147.67 154.969 147.688 152.416 147.684 150.121C147.734 146.681 147.776 143.739 147.811 141.297C147.822 140.557 148.09 139.932 148.616 139.421C149.142 138.874 149.775 138.606 150.515 138.616C151.255 138.627 151.88 138.913 152.39 139.476C152.937 140.002 153.205 140.635 153.195 141.375C153.188 141.856 153.181 142.355 153.173 142.873C153.735 142.4 154.315 141.965 154.913 141.566C156.744 140.334 158.513 139.583 160.219 139.311C161.257 139.141 162.182 139.192 162.992 139.462C164.391 140.001 165.172 140.993 165.336 142.438C165.436 143.18 165.242 143.843 164.752 144.428C164.3 145.014 163.703 145.338 162.962 145.402C162.146 145.501 161.428 145.25 160.808 144.649Z" fill="#D29A63" style="fill:#D29A63;fill:color(display-p3 0.8250 0.6051 0.3884);fill-opacity:1;"/>
<path d="M190.453 146.075C189.551 146.23 188.557 146.619 187.471 147.242C185.997 148.096 184.803 149.175 183.888 150.48C182.812 151.957 182.225 153.601 182.126 155.412C182.123 155.449 182.12 155.486 182.117 155.523C182.04 156.556 181.958 157.645 181.872 158.788C181.813 159.563 181.693 161.168 181.51 163.604C181.363 166.042 181.283 167.353 181.269 167.538C181.214 168.276 180.907 168.902 180.349 169.416C179.793 169.894 179.147 170.105 178.409 170.05C177.671 169.994 177.044 169.687 176.53 169.129C176.052 168.574 175.841 167.927 175.896 167.189C175.91 167.005 175.99 165.693 176.137 163.255C176.32 160.82 176.442 159.196 176.503 158.385C176.714 155.58 176.887 153.033 177.022 150.742C177.28 147.311 177.501 144.377 177.684 141.942C177.739 141.204 178.045 140.596 178.6 140.119C179.159 139.604 179.807 139.374 180.545 139.43C181.283 139.485 181.889 139.809 182.364 140.402C182.879 140.96 183.108 141.608 183.053 142.346C183.017 142.826 182.979 143.324 182.94 143.84C183.53 143.402 184.135 143.002 184.756 142.641C186.658 141.522 188.469 140.879 190.189 140.712C191.236 140.605 192.156 140.711 192.948 141.031C194.311 141.653 195.031 142.69 195.107 144.143C195.162 144.889 194.928 145.54 194.404 146.094C193.917 146.651 193.301 146.939 192.558 146.957C191.738 147.007 191.036 146.713 190.453 146.075Z" fill="#D29A63" style="fill:#D29A63;fill:color(display-p3 0.8250 0.6051 0.3884);fill-opacity:1;"/>
<path d="M217.982 143.897C218.208 143.891 218.43 143.904 218.65 143.935C222.989 144.701 226.151 146.906 228.138 150.552C229.92 153.794 230.421 157.509 229.64 161.697C228.884 165.7 227.166 168.858 224.483 171.168C221.492 173.808 217.948 174.818 213.85 174.2C209.789 173.586 206.655 171.702 204.449 168.549C202.285 165.364 201.486 161.644 202.053 157.389C202.661 153.102 204.199 149.77 206.667 147.392C209.49 144.616 213.262 143.451 217.982 143.897ZM217.94 149.329C214.633 148.934 212.111 149.585 210.375 151.282C208.854 152.785 207.877 155.057 207.446 158.098C207.04 160.956 207.5 163.376 208.826 165.358C210.12 167.298 212.066 168.471 214.661 168.877C217.111 169.262 219.19 168.697 220.9 167.183C222.652 165.638 223.799 163.484 224.34 160.72C224.866 157.805 224.552 155.275 223.399 153.131C222.335 151.148 220.607 149.894 218.215 149.368C218.105 149.352 218.014 149.339 217.94 149.329Z" fill="#D29A63" style="fill:#D29A63;fill:color(display-p3 0.8250 0.6051 0.3884);fill-opacity:1;"/>
<path d="M70.7965 153.17C71.1615 153.109 71.4352 153.063 71.6177 153.033C74.6591 152.599 76.9766 152.212 78.5702 151.87C80.8511 151.376 82.6849 150.788 84.0715 150.106C85.4642 149.461 86.428 148.718 86.9629 147.878C87.4978 147.038 87.6736 145.958 87.4904 144.639C87.2767 143.136 86.4975 142.066 85.1527 141.428C83.5281 140.687 81.3806 140.52 78.7103 140.929C75.7115 141.393 72.7432 141.927 69.8053 142.531C69.5498 142.574 69.2944 142.617 69.0389 142.659C69.4052 145.074 69.9911 148.578 70.7965 153.17ZM74.073 171.418C74.657 171.32 75.5755 171.204 76.8285 171.07C79.1765 170.752 80.9892 170.487 82.2665 170.273C86.0134 169.571 88.726 168.63 90.4044 167.449C92.107 166.189 92.7904 164.443 92.4546 162.21C92.2348 160.671 91.7445 159.534 90.9837 158.798C90.3446 158.117 89.4014 157.637 88.1542 157.358C86.907 157.079 85.3375 157.004 83.4457 157.133C81.9553 157.194 79.9875 157.43 77.5423 157.838C77.1408 157.906 76.5569 158.003 75.7905 158.131C74.0326 158.388 72.7156 158.589 71.8397 158.736C71.8886 159.028 71.9404 159.338 71.9954 159.666C73.1058 165.858 73.7984 169.776 74.073 171.418ZM90.5604 152.229C94.7647 153.589 97.2239 156.629 97.9382 161.35C98.6524 165.845 97.2156 169.368 93.6278 171.919C91.2867 173.623 87.823 174.896 83.2367 175.738C81.8498 175.97 79.9429 176.233 77.5158 176.526C74.9124 176.886 73.2123 177.152 72.4155 177.323C71.9045 177.408 71.4118 177.378 70.9372 177.232C70.42 177.056 69.9788 176.773 69.6136 176.384C69.2423 175.959 69.0261 175.451 68.965 174.861C68.8488 173.717 68.0402 168.994 66.5392 160.691C66.2403 159.128 66.0054 157.835 65.8346 156.814C64.4496 149.204 63.5738 143.967 63.2073 141.102C63.1951 141.029 63.1737 140.901 63.1432 140.719C63.1371 140.682 63.134 140.664 63.134 140.664C63.1705 140.658 63.1857 140.637 63.1796 140.6C63.0576 139.87 63.2275 139.204 63.6895 138.602C64.188 137.993 64.8205 137.625 65.5869 137.496C65.8485 137.49 66.1314 137.499 66.4355 137.523C67.1229 137.371 67.8862 137.224 68.7256 137.084C71.7365 136.468 74.7961 135.919 77.9044 135.437C81.6757 134.881 84.8817 135.208 87.5225 136.417C90.6622 137.918 92.4825 140.39 92.9831 143.833C93.3617 146.545 92.9129 148.909 91.6365 150.923C91.3021 151.392 90.9435 151.827 90.5604 152.229Z" stroke="#D29A63" style="stroke:#D29A63;stroke:color(display-p3 0.8250 0.6051 0.3884);stroke-opacity:1;" stroke-width="2.1" mask="url(#path-12-outside-1_605_18178)"/>
<path d="M126.854 160.811C126.678 159.747 126.55 158.568 126.471 157.275C125.455 157.634 124.192 157.897 122.682 158.063C122.202 158.093 121.537 158.134 120.688 158.185C120.171 158.217 119.801 158.24 119.58 158.253C117.735 158.403 116.137 158.946 114.786 159.881C113.649 160.692 113.054 161.563 113 162.493C112.961 163.682 113.352 164.622 114.173 165.313C115.072 166.073 116.224 166.411 117.627 166.325C119.437 166.214 121.2 165.643 122.916 164.611C124.633 163.579 125.945 162.312 126.854 160.811ZM109.056 146.219C109.223 145.912 109.445 145.602 109.722 145.288C110.242 144.7 110.84 144.163 111.514 143.677C113.605 142.103 116.129 141.245 119.086 141.101C120.859 140.992 122.401 141.046 123.711 141.262C125.361 141.569 126.769 142.15 127.933 143.006C130.53 144.849 131.795 147.96 131.73 152.338C131.674 156.271 131.909 159.204 132.435 161.137C133.003 163.141 133.947 164.343 135.269 164.744C135.987 164.96 136.514 165.391 136.85 166.038C137.223 166.682 137.302 167.363 137.086 168.081C136.908 168.796 136.496 169.341 135.852 169.714C135.205 170.05 134.523 170.11 133.805 169.894C132.033 169.41 130.585 168.46 129.46 167.046C129.34 166.905 129.219 166.746 129.097 166.568C127.63 168.03 125.924 169.228 123.979 170.162C122.032 171.06 120.043 171.571 118.011 171.695C115.096 171.911 112.601 171.118 110.526 169.317C108.485 167.477 107.527 165.145 107.651 162.32C107.744 159.608 109.07 157.34 111.627 155.515C113.794 153.973 116.299 153.097 119.14 152.886C119.436 152.868 119.86 152.842 120.414 152.808C121.19 152.761 121.781 152.725 122.187 152.7C123.588 152.577 124.611 152.329 125.256 151.956C125.757 151.666 126.06 151.165 126.165 150.454C126.195 150.341 126.225 150.228 126.255 150.115C126.152 149.64 126.032 149.202 125.897 148.803C125.637 148.188 125.274 147.71 124.808 147.368C123.798 146.614 121.982 146.317 119.36 146.478C117.474 146.556 115.929 147.059 114.725 147.985C114.369 148.229 114.053 148.508 113.775 148.822C113.706 148.9 113.654 148.959 113.619 148.998C113.249 149.614 112.699 150.018 111.97 150.211C111.24 150.404 110.549 150.317 109.896 149.949C109.278 149.542 108.873 148.973 108.68 148.244C108.524 147.512 108.649 146.837 109.056 146.219Z" stroke="#D29A63" style="stroke:#D29A63;stroke:color(display-p3 0.8250 0.6051 0.3884);stroke-opacity:1;" stroke-width="2.1" mask="url(#path-12-outside-1_605_18178)"/>
<path d="M160.808 144.649C159.917 144.858 158.948 145.307 157.902 145.995C156.482 146.936 155.355 148.086 154.522 149.443C153.537 150.983 153.05 152.66 153.061 154.473C153.061 154.51 153.06 154.547 153.06 154.584C153.045 155.62 153.029 156.712 153.012 157.859C153.001 158.636 152.978 160.245 152.943 162.687C152.944 165.13 152.944 166.443 152.941 166.628C152.931 167.368 152.662 168.012 152.136 168.56C151.611 169.07 150.978 169.32 150.238 169.309C149.498 169.299 148.854 169.03 148.307 168.504C147.796 167.979 147.546 167.346 147.557 166.606C147.56 166.421 147.56 165.107 147.558 162.665C147.594 160.223 147.617 158.595 147.629 157.781C147.67 154.969 147.688 152.416 147.684 150.121C147.734 146.681 147.776 143.739 147.811 141.297C147.822 140.557 148.09 139.932 148.616 139.421C149.142 138.874 149.775 138.606 150.515 138.616C151.255 138.627 151.88 138.913 152.39 139.476C152.937 140.002 153.205 140.635 153.195 141.375C153.188 141.856 153.181 142.355 153.173 142.873C153.735 142.4 154.315 141.965 154.913 141.566C156.744 140.334 158.513 139.583 160.219 139.311C161.257 139.141 162.182 139.192 162.992 139.462C164.391 140.001 165.172 140.993 165.336 142.438C165.436 143.18 165.242 143.843 164.752 144.428C164.3 145.014 163.703 145.338 162.962 145.402C162.146 145.501 161.428 145.25 160.808 144.649Z" stroke="#D29A63" style="stroke:#D29A63;stroke:color(display-p3 0.8250 0.6051 0.3884);stroke-opacity:1;" stroke-width="2.1" mask="url(#path-12-outside-1_605_18178)"/>
<path d="M190.453 146.075C189.551 146.23 188.557 146.619 187.471 147.242C185.997 148.096 184.803 149.175 183.888 150.48C182.812 151.957 182.225 153.601 182.126 155.412C182.123 155.449 182.12 155.486 182.117 155.523C182.04 156.556 181.958 157.645 181.872 158.788C181.813 159.563 181.693 161.168 181.51 163.604C181.363 166.042 181.283 167.353 181.269 167.538C181.214 168.276 180.907 168.902 180.349 169.416C179.793 169.894 179.147 170.105 178.409 170.05C177.671 169.994 177.044 169.687 176.53 169.129C176.052 168.574 175.841 167.927 175.896 167.189C175.91 167.005 175.99 165.693 176.137 163.255C176.32 160.82 176.442 159.196 176.503 158.385C176.714 155.58 176.887 153.033 177.022 150.742C177.28 147.311 177.501 144.377 177.684 141.942C177.739 141.204 178.045 140.596 178.6 140.119C179.159 139.604 179.807 139.374 180.545 139.43C181.283 139.485 181.889 139.809 182.364 140.402C182.879 140.96 183.108 141.608 183.053 142.346C183.017 142.826 182.979 143.324 182.94 143.84C183.53 143.402 184.135 143.002 184.756 142.641C186.658 141.522 188.469 140.879 190.189 140.712C191.236 140.605 192.156 140.711 192.948 141.031C194.311 141.653 195.031 142.69 195.107 144.143C195.162 144.889 194.928 145.54 194.404 146.094C193.917 146.651 193.301 146.939 192.558 146.957C191.738 147.007 191.036 146.713 190.453 146.075Z" stroke="#D29A63" style="stroke:#D29A63;stroke:color(display-p3 0.8250 0.6051 0.3884);stroke-opacity:1;" stroke-width="2.1" mask="url(#path-12-outside-1_605_18178)"/>
<path d="M217.982 143.897C218.208 143.891 218.43 143.904 218.65 143.935C222.989 144.701 226.151 146.906 228.138 150.552C229.92 153.794 230.421 157.509 229.64 161.697C228.884 165.7 227.166 168.858 224.483 171.168C221.492 173.808 217.948 174.818 213.85 174.2C209.789 173.586 206.655 171.702 204.449 168.549C202.285 165.364 201.486 161.644 202.053 157.389C202.661 153.102 204.199 149.77 206.667 147.392C209.49 144.616 213.262 143.451 217.982 143.897ZM217.94 149.329C214.633 148.934 212.111 149.585 210.375 151.282C208.854 152.785 207.877 155.057 207.446 158.098C207.04 160.956 207.5 163.376 208.826 165.358C210.12 167.298 212.066 168.471 214.661 168.877C217.111 169.262 219.19 168.697 220.9 167.183C222.652 165.638 223.799 163.484 224.34 160.72C224.866 157.805 224.552 155.275 223.399 153.131C222.335 151.148 220.607 149.894 218.215 149.368C218.105 149.352 218.014 149.339 217.94 149.329Z" stroke="#D29A63" style="stroke:#D29A63;stroke:color(display-p3 0.8250 0.6051 0.3884);stroke-opacity:1;" stroke-width="2.1" mask="url(#path-12-outside-1_605_18178)"/>
<path d="M103.298 202.748C103.721 201.445 105.565 201.445 105.988 202.748L107.607 207.729C107.796 208.312 108.339 208.706 108.952 208.706H114.189C115.559 208.706 116.129 210.459 115.02 211.264L110.783 214.343C110.287 214.703 110.08 215.342 110.269 215.924L111.888 220.906C112.311 222.209 110.82 223.292 109.712 222.487L105.474 219.408C104.979 219.048 104.307 219.048 103.812 219.408L99.5744 222.487C98.466 223.292 96.9747 222.209 97.398 220.906L99.0165 215.924C99.2059 215.342 98.9985 214.703 98.5028 214.343L94.2655 211.264C93.1571 210.459 93.7267 208.706 95.0968 208.706H100.334C100.947 208.706 101.49 208.312 101.679 207.729L103.298 202.748Z" fill="#ECFF79" style="fill:#ECFF79;fill:color(display-p3 0.9265 1.0000 0.4750);fill-opacity:1;"/>
<mask id="path-14-outside-2_605_18178" maskUnits="userSpaceOnUse" x="119.257" y="198.075" width="56" height="27" fill="black">
<rect fill="white" x="119.257" y="198.075" width="56" height="27"/>
<path d="M128.083 208.1C127.55 208.233 126.973 208.511 126.351 208.933C125.508 209.51 124.842 210.209 124.353 211.031C123.776 211.963 123.499 212.973 123.521 214.061C123.521 214.083 123.521 214.106 123.521 214.128C123.521 214.749 123.521 215.404 123.521 216.093C123.521 216.559 123.521 217.525 123.521 218.99C123.543 220.455 123.554 221.243 123.554 221.354C123.554 221.798 123.399 222.187 123.088 222.52C122.777 222.831 122.4 222.986 121.956 222.986C121.511 222.986 121.123 222.831 120.79 222.52C120.479 222.209 120.324 221.832 120.324 221.388C120.324 221.277 120.313 220.489 120.29 219.023C120.29 217.558 120.29 216.581 120.29 216.093C120.29 214.405 120.279 212.873 120.257 211.497C120.257 209.432 120.257 207.667 120.257 206.202C120.257 205.758 120.412 205.38 120.723 205.069C121.034 204.736 121.412 204.57 121.856 204.57C122.3 204.57 122.677 204.736 122.988 205.069C123.321 205.38 123.487 205.758 123.487 206.202C123.487 206.49 123.487 206.79 123.487 207.101C123.82 206.812 124.165 206.546 124.52 206.302C125.608 205.547 126.662 205.081 127.684 204.903C128.305 204.792 128.86 204.814 129.349 204.97C130.192 205.28 130.67 205.869 130.781 206.735C130.847 207.179 130.736 207.578 130.448 207.933C130.181 208.289 129.826 208.488 129.382 208.533C128.894 208.599 128.461 208.455 128.083 208.1Z"/>
<path d="M144.246 212.596C144.024 211.286 143.558 210.298 142.847 209.632C142.07 208.899 141.004 208.533 139.65 208.533C137.852 208.511 136.542 209.088 135.72 210.265C135.276 210.908 134.966 211.73 134.788 212.729C135.898 212.707 137.374 212.685 139.217 212.662C139.728 212.662 140.272 212.662 140.849 212.662C141.937 212.64 143.069 212.618 144.246 212.596ZM134.688 215.959C134.888 217.203 135.365 218.224 136.12 219.023C137.03 219.978 138.151 220.466 139.484 220.489C140.838 220.511 142.092 220.222 143.247 219.623C143.58 219.445 143.88 219.245 144.146 219.023C144.235 218.957 144.301 218.901 144.346 218.857C144.368 218.834 144.39 218.823 144.412 218.823C144.723 218.513 145.101 218.357 145.545 218.357C145.989 218.357 146.366 218.513 146.677 218.823C146.988 219.134 147.143 219.512 147.143 219.956C147.143 220.4 146.988 220.788 146.677 221.121C146.633 221.166 146.577 221.21 146.51 221.254C146.399 221.365 146.277 221.476 146.144 221.587C145.722 221.898 145.256 222.187 144.745 222.453C143.125 223.341 141.36 223.763 139.45 223.719C137.208 223.674 135.31 222.853 133.756 221.254C132.113 219.501 131.324 217.225 131.391 214.427C131.435 211.985 131.991 209.998 133.056 208.466C134.522 206.313 136.742 205.258 139.717 205.303C141.915 205.325 143.702 205.991 145.078 207.301C146.699 208.833 147.554 211.119 147.643 214.161C147.643 214.605 147.487 214.994 147.176 215.327C146.866 215.637 146.488 215.793 146.044 215.793H145.944C145.9 215.793 145.833 215.804 145.744 215.826C145.678 215.826 145.633 215.826 145.611 215.826C145.256 215.826 144.89 215.826 144.512 215.826C143.247 215.848 142.037 215.871 140.882 215.893C140.305 215.893 139.761 215.893 139.25 215.893C137.341 215.937 135.82 215.959 134.688 215.959Z"/>
<path d="M162.077 217.391C162.01 216.748 161.977 216.037 161.977 215.26C161.355 215.438 160.59 215.549 159.679 215.593C159.391 215.593 158.991 215.593 158.48 215.593C158.17 215.593 157.948 215.593 157.814 215.593C156.704 215.615 155.727 215.882 154.884 216.392C154.173 216.836 153.785 217.336 153.718 217.891C153.652 218.601 153.851 219.179 154.318 219.623C154.828 220.111 155.505 220.355 156.349 220.355C157.437 220.355 158.514 220.078 159.579 219.523C160.645 218.968 161.478 218.257 162.077 217.391ZM151.953 208C152.064 207.822 152.208 207.645 152.386 207.467C152.719 207.134 153.096 206.834 153.518 206.568C154.828 205.702 156.371 205.28 158.147 205.303C159.213 205.303 160.134 205.391 160.911 205.569C161.888 205.813 162.71 206.213 163.376 206.768C164.863 207.967 165.507 209.876 165.307 212.496C165.13 214.849 165.163 216.614 165.407 217.791C165.674 219.012 166.195 219.767 166.973 220.056C167.394 220.211 167.694 220.489 167.872 220.888C168.072 221.288 168.094 221.699 167.938 222.12C167.805 222.542 167.539 222.853 167.139 223.053C166.739 223.23 166.329 223.242 165.907 223.086C164.863 222.731 164.031 222.109 163.409 221.221C163.343 221.132 163.276 221.032 163.209 220.921C162.277 221.743 161.211 222.398 160.012 222.886C158.813 223.353 157.603 223.586 156.382 223.586C154.628 223.608 153.163 223.042 151.986 221.887C150.832 220.711 150.343 219.279 150.521 217.591C150.676 215.97 151.553 214.661 153.152 213.661C154.506 212.818 156.038 212.385 157.748 212.363C157.925 212.363 158.181 212.363 158.514 212.363C158.98 212.363 159.335 212.363 159.579 212.363C160.423 212.34 161.045 212.229 161.444 212.03C161.755 211.874 161.955 211.586 162.044 211.164C162.066 211.097 162.088 211.031 162.11 210.964C162.066 210.675 162.01 210.409 161.944 210.165C161.811 209.787 161.611 209.488 161.344 209.266C160.767 208.777 159.69 208.533 158.114 208.533C156.982 208.511 156.038 208.755 155.283 209.266C155.061 209.399 154.861 209.554 154.684 209.732C154.639 209.776 154.606 209.809 154.584 209.832C154.34 210.187 153.996 210.409 153.552 210.498C153.108 210.587 152.697 210.509 152.319 210.265C151.964 209.998 151.742 209.643 151.653 209.199C151.587 208.755 151.687 208.355 151.953 208Z"/>
<path d="M174.199 200.74C174.199 202.827 174.188 205.125 174.166 207.634C174.144 210.276 174.111 213.872 174.066 218.424C174.044 220 174.033 221.01 174.033 221.454C174.033 221.921 173.866 222.32 173.533 222.653C173.2 222.964 172.801 223.108 172.335 223.086C171.89 223.086 171.502 222.931 171.169 222.62C170.858 222.287 170.703 221.887 170.703 221.421C170.703 220.977 170.714 219.956 170.736 218.357C170.78 213.828 170.814 210.242 170.836 207.6C170.858 205.114 170.869 202.827 170.869 200.74C170.869 200.274 171.025 199.885 171.335 199.574C171.668 199.241 172.057 199.075 172.501 199.075C172.967 199.075 173.367 199.241 173.7 199.574C174.033 199.885 174.199 200.274 174.199 200.74Z"/>
</mask>
<path d="M128.083 208.1C127.55 208.233 126.973 208.511 126.351 208.933C125.508 209.51 124.842 210.209 124.353 211.031C123.776 211.963 123.499 212.973 123.521 214.061C123.521 214.083 123.521 214.106 123.521 214.128C123.521 214.749 123.521 215.404 123.521 216.093C123.521 216.559 123.521 217.525 123.521 218.99C123.543 220.455 123.554 221.243 123.554 221.354C123.554 221.798 123.399 222.187 123.088 222.52C122.777 222.831 122.4 222.986 121.956 222.986C121.511 222.986 121.123 222.831 120.79 222.52C120.479 222.209 120.324 221.832 120.324 221.388C120.324 221.277 120.313 220.489 120.29 219.023C120.29 217.558 120.29 216.581 120.29 216.093C120.29 214.405 120.279 212.873 120.257 211.497C120.257 209.432 120.257 207.667 120.257 206.202C120.257 205.758 120.412 205.38 120.723 205.069C121.034 204.736 121.412 204.57 121.856 204.57C122.3 204.57 122.677 204.736 122.988 205.069C123.321 205.38 123.487 205.758 123.487 206.202C123.487 206.49 123.487 206.79 123.487 207.101C123.82 206.812 124.165 206.546 124.52 206.302C125.608 205.547 126.662 205.081 127.684 204.903C128.305 204.792 128.86 204.814 129.349 204.97C130.192 205.28 130.67 205.869 130.781 206.735C130.847 207.179 130.736 207.578 130.448 207.933C130.181 208.289 129.826 208.488 129.382 208.533C128.894 208.599 128.461 208.455 128.083 208.1Z" fill="#D29A63" style="fill:#D29A63;fill:color(display-p3 0.8250 0.6051 0.3884);fill-opacity:1;"/>
<path d="M144.246 212.596C144.024 211.286 143.558 210.298 142.847 209.632C142.07 208.899 141.004 208.533 139.65 208.533C137.852 208.511 136.542 209.088 135.72 210.265C135.276 210.908 134.966 211.73 134.788 212.729C135.898 212.707 137.374 212.685 139.217 212.662C139.728 212.662 140.272 212.662 140.849 212.662C141.937 212.64 143.069 212.618 144.246 212.596ZM134.688 215.959C134.888 217.203 135.365 218.224 136.12 219.023C137.03 219.978 138.151 220.466 139.484 220.489C140.838 220.511 142.092 220.222 143.247 219.623C143.58 219.445 143.88 219.245 144.146 219.023C144.235 218.957 144.301 218.901 144.346 218.857C144.368 218.834 144.39 218.823 144.412 218.823C144.723 218.513 145.101 218.357 145.545 218.357C145.989 218.357 146.366 218.513 146.677 218.823C146.988 219.134 147.143 219.512 147.143 219.956C147.143 220.4 146.988 220.788 146.677 221.121C146.633 221.166 146.577 221.21 146.51 221.254C146.399 221.365 146.277 221.476 146.144 221.587C145.722 221.898 145.256 222.187 144.745 222.453C143.125 223.341 141.36 223.763 139.45 223.719C137.208 223.674 135.31 222.853 133.756 221.254C132.113 219.501 131.324 217.225 131.391 214.427C131.435 211.985 131.991 209.998 133.056 208.466C134.522 206.313 136.742 205.258 139.717 205.303C141.915 205.325 143.702 205.991 145.078 207.301C146.699 208.833 147.554 211.119 147.643 214.161C147.643 214.605 147.487 214.994 147.176 215.327C146.866 215.637 146.488 215.793 146.044 215.793H145.944C145.9 215.793 145.833 215.804 145.744 215.826C145.678 215.826 145.633 215.826 145.611 215.826C145.256 215.826 144.89 215.826 144.512 215.826C143.247 215.848 142.037 215.871 140.882 215.893C140.305 215.893 139.761 215.893 139.25 215.893C137.341 215.937 135.82 215.959 134.688 215.959Z" fill="#D29A63" style="fill:#D29A63;fill:color(display-p3 0.8250 0.6051 0.3884);fill-opacity:1;"/>
<path d="M162.077 217.391C162.01 216.748 161.977 216.037 161.977 215.26C161.355 215.438 160.59 215.549 159.679 215.593C159.391 215.593 158.991 215.593 158.48 215.593C158.17 215.593 157.948 215.593 157.814 215.593C156.704 215.615 155.727 215.882 154.884 216.392C154.173 216.836 153.785 217.336 153.718 217.891C153.652 218.601 153.851 219.179 154.318 219.623C154.828 220.111 155.505 220.355 156.349 220.355C157.437 220.355 158.514 220.078 159.579 219.523C160.645 218.968 161.478 218.257 162.077 217.391ZM151.953 208C152.064 207.822 152.208 207.645 152.386 207.467C152.719 207.134 153.096 206.834 153.518 206.568C154.828 205.702 156.371 205.28 158.147 205.303C159.213 205.303 160.134 205.391 160.911 205.569C161.888 205.813 162.71 206.213 163.376 206.768C164.863 207.967 165.507 209.876 165.307 212.496C165.13 214.849 165.163 216.614 165.407 217.791C165.674 219.012 166.195 219.767 166.973 220.056C167.394 220.211 167.694 220.489 167.872 220.888C168.072 221.288 168.094 221.699 167.938 222.12C167.805 222.542 167.539 222.853 167.139 223.053C166.739 223.23 166.329 223.242 165.907 223.086C164.863 222.731 164.031 222.109 163.409 221.221C163.343 221.132 163.276 221.032 163.209 220.921C162.277 221.743 161.211 222.398 160.012 222.886C158.813 223.353 157.603 223.586 156.382 223.586C154.628 223.608 153.163 223.042 151.986 221.887C150.832 220.711 150.343 219.279 150.521 217.591C150.676 215.97 151.553 214.661 153.152 213.661C154.506 212.818 156.038 212.385 157.748 212.363C157.925 212.363 158.181 212.363 158.514 212.363C158.98 212.363 159.335 212.363 159.579 212.363C160.423 212.34 161.045 212.229 161.444 212.03C161.755 211.874 161.955 211.586 162.044 211.164C162.066 211.097 162.088 211.031 162.11 210.964C162.066 210.675 162.01 210.409 161.944 210.165C161.811 209.787 161.611 209.488 161.344 209.266C160.767 208.777 159.69 208.533 158.114 208.533C156.982 208.511 156.038 208.755 155.283 209.266C155.061 209.399 154.861 209.554 154.684 209.732C154.639 209.776 154.606 209.809 154.584 209.832C154.34 210.187 153.996 210.409 153.552 210.498C153.108 210.587 152.697 210.509 152.319 210.265C151.964 209.998 151.742 209.643 151.653 209.199C151.587 208.755 151.687 208.355 151.953 208Z" fill="#D29A63" style="fill:#D29A63;fill:color(display-p3 0.8250 0.6051 0.3884);fill-opacity:1;"/>
<path d="M174.199 200.74C174.199 202.827 174.188 205.125 174.166 207.634C174.144 210.276 174.111 213.872 174.066 218.424C174.044 220 174.033 221.01 174.033 221.454C174.033 221.921 173.866 222.32 173.533 222.653C173.2 222.964 172.801 223.108 172.335 223.086C171.89 223.086 171.502 222.931 171.169 222.62C170.858 222.287 170.703 221.887 170.703 221.421C170.703 220.977 170.714 219.956 170.736 218.357C170.78 213.828 170.814 210.242 170.836 207.6C170.858 205.114 170.869 202.827 170.869 200.74C170.869 200.274 171.025 199.885 171.335 199.574C171.668 199.241 172.057 199.075 172.501 199.075C172.967 199.075 173.367 199.241 173.7 199.574C174.033 199.885 174.199 200.274 174.199 200.74Z" fill="#D29A63" style="fill:#D29A63;fill:color(display-p3 0.8250 0.6051 0.3884);fill-opacity:1;"/>
<path d="M128.083 208.1C127.55 208.233 126.973 208.511 126.351 208.933C125.508 209.51 124.842 210.209 124.353 211.031C123.776 211.963 123.499 212.973 123.521 214.061C123.521 214.083 123.521 214.106 123.521 214.128C123.521 214.749 123.521 215.404 123.521 216.093C123.521 216.559 123.521 217.525 123.521 218.99C123.543 220.455 123.554 221.243 123.554 221.354C123.554 221.798 123.399 222.187 123.088 222.52C122.777 222.831 122.4 222.986 121.956 222.986C121.511 222.986 121.123 222.831 120.79 222.52C120.479 222.209 120.324 221.832 120.324 221.388C120.324 221.277 120.313 220.489 120.29 219.023C120.29 217.558 120.29 216.581 120.29 216.093C120.29 214.405 120.279 212.873 120.257 211.497C120.257 209.432 120.257 207.667 120.257 206.202C120.257 205.758 120.412 205.38 120.723 205.069C121.034 204.736 121.412 204.57 121.856 204.57C122.3 204.57 122.677 204.736 122.988 205.069C123.321 205.38 123.487 205.758 123.487 206.202C123.487 206.49 123.487 206.79 123.487 207.101C123.82 206.812 124.165 206.546 124.52 206.302C125.608 205.547 126.662 205.081 127.684 204.903C128.305 204.792 128.86 204.814 129.349 204.97C130.192 205.28 130.67 205.869 130.781 206.735C130.847 207.179 130.736 207.578 130.448 207.933C130.181 208.289 129.826 208.488 129.382 208.533C128.894 208.599 128.461 208.455 128.083 208.1Z" stroke="#D29A63" style="stroke:#D29A63;stroke:color(display-p3 0.8235 0.6039 0.3882);stroke-opacity:1;" mask="url(#path-14-outside-2_605_18178)"/>
<path d="M144.246 212.596C144.024 211.286 143.558 210.298 142.847 209.632C142.07 208.899 141.004 208.533 139.65 208.533C137.852 208.511 136.542 209.088 135.72 210.265C135.276 210.908 134.966 211.73 134.788 212.729C135.898 212.707 137.374 212.685 139.217 212.662C139.728 212.662 140.272 212.662 140.849 212.662C141.937 212.64 143.069 212.618 144.246 212.596ZM134.688 215.959C134.888 217.203 135.365 218.224 136.12 219.023C137.03 219.978 138.151 220.466 139.484 220.489C140.838 220.511 142.092 220.222 143.247 219.623C143.58 219.445 143.88 219.245 144.146 219.023C144.235 218.957 144.301 218.901 144.346 218.857C144.368 218.834 144.39 218.823 144.412 218.823C144.723 218.513 145.101 218.357 145.545 218.357C145.989 218.357 146.366 218.513 146.677 218.823C146.988 219.134 147.143 219.512 147.143 219.956C147.143 220.4 146.988 220.788 146.677 221.121C146.633 221.166 146.577 221.21 146.51 221.254C146.399 221.365 146.277 221.476 146.144 221.587C145.722 221.898 145.256 222.187 144.745 222.453C143.125 223.341 141.36 223.763 139.45 223.719C137.208 223.674 135.31 222.853 133.756 221.254C132.113 219.501 131.324 217.225 131.391 214.427C131.435 211.985 131.991 209.998 133.056 208.466C134.522 206.313 136.742 205.258 139.717 205.303C141.915 205.325 143.702 205.991 145.078 207.301C146.699 208.833 147.554 211.119 147.643 214.161C147.643 214.605 147.487 214.994 147.176 215.327C146.866 215.637 146.488 215.793 146.044 215.793H145.944C145.9 215.793 145.833 215.804 145.744 215.826C145.678 215.826 145.633 215.826 145.611 215.826C145.256 215.826 144.89 215.826 144.512 215.826C143.247 215.848 142.037 215.871 140.882 215.893C140.305 215.893 139.761 215.893 139.25 215.893C137.341 215.937 135.82 215.959 134.688 215.959Z" stroke="#D29A63" style="stroke:#D29A63;stroke:color(display-p3 0.8235 0.6039 0.3882);stroke-opacity:1;" mask="url(#path-14-outside-2_605_18178)"/>
<path d="M162.077 217.391C162.01 216.748 161.977 216.037 161.977 215.26C161.355 215.438 160.59 215.549 159.679 215.593C159.391 215.593 158.991 215.593 158.48 215.593C158.17 215.593 157.948 215.593 157.814 215.593C156.704 215.615 155.727 215.882 154.884 216.392C154.173 216.836 153.785 217.336 153.718 217.891C153.652 218.601 153.851 219.179 154.318 219.623C154.828 220.111 155.505 220.355 156.349 220.355C157.437 220.355 158.514 220.078 159.579 219.523C160.645 218.968 161.478 218.257 162.077 217.391ZM151.953 208C152.064 207.822 152.208 207.645 152.386 207.467C152.719 207.134 153.096 206.834 153.518 206.568C154.828 205.702 156.371 205.28 158.147 205.303C159.213 205.303 160.134 205.391 160.911 205.569C161.888 205.813 162.71 206.213 163.376 206.768C164.863 207.967 165.507 209.876 165.307 212.496C165.13 214.849 165.163 216.614 165.407 217.791C165.674 219.012 166.195 219.767 166.973 220.056C167.394 220.211 167.694 220.489 167.872 220.888C168.072 221.288 168.094 221.699 167.938 222.12C167.805 222.542 167.539 222.853 167.139 223.053C166.739 223.23 166.329 223.242 165.907 223.086C164.863 222.731 164.031 222.109 163.409 221.221C163.343 221.132 163.276 221.032 163.209 220.921C162.277 221.743 161.211 222.398 160.012 222.886C158.813 223.353 157.603 223.586 156.382 223.586C154.628 223.608 153.163 223.042 151.986 221.887C150.832 220.711 150.343 219.279 150.521 217.591C150.676 215.97 151.553 214.661 153.152 213.661C154.506 212.818 156.038 212.385 157.748 212.363C157.925 212.363 158.181 212.363 158.514 212.363C158.98 212.363 159.335 212.363 159.579 212.363C160.423 212.34 161.045 212.229 161.444 212.03C161.755 211.874 161.955 211.586 162.044 211.164C162.066 211.097 162.088 211.031 162.11 210.964C162.066 210.675 162.01 210.409 161.944 210.165C161.811 209.787 161.611 209.488 161.344 209.266C160.767 208.777 159.69 208.533 158.114 208.533C156.982 208.511 156.038 208.755 155.283 209.266C155.061 209.399 154.861 209.554 154.684 209.732C154.639 209.776 154.606 209.809 154.584 209.832C154.34 210.187 153.996 210.409 153.552 210.498C153.108 210.587 152.697 210.509 152.319 210.265C151.964 209.998 151.742 209.643 151.653 209.199C151.587 208.755 151.687 208.355 151.953 208Z" stroke="#D29A63" style="stroke:#D29A63;stroke:color(display-p3 0.8235 0.6039 0.3882);stroke-opacity:1;" mask="url(#path-14-outside-2_605_18178)"/>
<path d="M174.199 200.74C174.199 202.827 174.188 205.125 174.166 207.634C174.144 210.276 174.111 213.872 174.066 218.424C174.044 220 174.033 221.01 174.033 221.454C174.033 221.921 173.866 222.32 173.533 222.653C173.2 222.964 172.801 223.108 172.335 223.086C171.89 223.086 171.502 222.931 171.169 222.62C170.858 222.287 170.703 221.887 170.703 221.421C170.703 220.977 170.714 219.956 170.736 218.357C170.78 213.828 170.814 210.242 170.836 207.6C170.858 205.114 170.869 202.827 170.869 200.74C170.869 200.274 171.025 199.885 171.335 199.574C171.668 199.241 172.057 199.075 172.501 199.075C172.967 199.075 173.367 199.241 173.7 199.574C174.033 199.885 174.199 200.274 174.199 200.74Z" stroke="#D29A63" style="stroke:#D29A63;stroke:color(display-p3 0.8235 0.6039 0.3882);stroke-opacity:1;" mask="url(#path-14-outside-2_605_18178)"/>
<path d="M188.469 202.748C188.892 201.445 190.735 201.445 191.159 202.748L192.777 207.729C192.967 208.312 193.51 208.706 194.122 208.706H199.36C200.73 208.706 201.3 210.459 200.191 211.264L195.954 214.343C195.458 214.703 195.251 215.342 195.44 215.924L197.059 220.906C197.482 222.209 195.991 223.292 194.882 222.487L190.645 219.408C190.149 219.048 189.478 219.048 188.982 219.408L184.745 222.487C183.637 223.292 182.145 222.209 182.569 220.906L184.187 215.924C184.377 215.342 184.169 214.703 183.673 214.343L179.436 211.264C178.328 210.459 178.897 208.706 180.267 208.706H185.505C186.118 208.706 186.661 208.312 186.85 207.729L188.469 202.748Z" fill="#ECFF79" style="fill:#ECFF79;fill:color(display-p3 0.9265 1.0000 0.4750);fill-opacity:1;"/>
<mask id="path-16-outside-3_605_18178" maskUnits="userSpaceOnUse" x="92.3228" y="227.529" width="107" height="35" fill="black">
<rect fill="white" x="92.3228" y="227.529" width="107" height="35"/>
<path d="M112.028 237.029C111.948 235.839 111.346 234.831 110.222 234.003C109.025 233.139 107.545 232.632 105.783 232.48C104.025 232.303 102.514 232.539 101.25 233.186C100.074 233.766 99.4026 234.596 99.2357 235.674C99.1057 236.47 99.136 237.142 99.3264 237.691C99.5201 238.214 99.9026 238.696 100.474 239.137C100.997 239.546 101.731 239.943 102.677 240.328C103.349 240.6 104.363 240.955 105.721 241.394C105.743 241.423 105.78 241.441 105.832 241.448L105.948 241.463C107.354 241.934 108.405 242.307 109.103 242.582C110.322 243.081 111.315 243.604 112.082 244.149C114.355 245.808 115.3 248.002 114.918 250.729C114.529 253.508 113.144 255.594 110.761 256.986C108.75 258.138 106.399 258.591 103.706 258.345C101.091 258.108 98.8313 257.25 96.9283 255.771C94.7139 254.067 93.5137 251.919 93.3279 249.327C93.292 248.798 93.4444 248.334 93.7849 247.933C94.1546 247.509 94.6037 247.28 95.1324 247.244C95.6611 247.208 96.1243 247.373 96.5219 247.739C96.9487 248.083 97.1799 248.52 97.2158 249.048C97.3177 250.477 98.0233 251.695 99.3327 252.704C100.616 253.71 102.203 254.297 104.094 254.465C105.933 254.627 107.504 254.334 108.807 253.587C110.11 252.84 110.859 251.719 111.054 250.225C111.141 249.555 111.083 248.997 110.879 248.551C110.701 248.109 110.349 247.696 109.822 247.313C109.292 246.956 108.568 246.586 107.648 246.204C107.05 245.969 106.085 245.633 104.753 245.198C104.705 245.165 104.655 245.146 104.604 245.139C104.578 245.135 104.539 245.13 104.488 245.124C103.03 244.645 101.929 244.253 101.183 243.946C99.916 243.414 98.8782 242.833 98.0695 242.203C95.7879 240.412 94.8952 238.016 95.3915 235.016C95.7814 232.63 97.1524 230.857 99.5047 229.696C101.411 228.74 103.608 228.371 106.094 228.591C108.607 228.814 110.749 229.565 112.521 230.844C114.652 232.38 115.781 234.374 115.906 236.827C115.942 237.356 115.777 237.819 115.411 238.217C115.044 238.614 114.597 238.831 114.068 238.867C113.539 238.903 113.076 238.738 112.679 238.371C112.281 238.005 112.064 237.558 112.028 237.029Z"/>
<path d="M127.394 234.559C127.333 235.57 127.236 236.944 127.104 238.679C127.103 238.705 127.099 238.77 127.092 238.874C127.086 238.978 127.068 239.068 127.037 239.144L127.035 239.183C128.02 239.243 128.85 239.293 129.524 239.334C130.069 239.368 130.512 239.577 130.852 239.962C131.193 240.347 131.347 240.812 131.314 241.356C131.283 241.875 131.074 242.305 130.689 242.646C130.304 242.987 129.839 243.141 129.294 243.108C128.62 243.067 127.777 243.015 126.766 242.954C126.353 248.447 126.091 252.543 125.979 255.243C125.944 255.814 126.087 256.239 126.409 256.519C126.706 256.771 127.039 256.857 127.408 256.775C127.91 256.649 128.374 256.73 128.799 257.016C129.25 257.304 129.525 257.711 129.623 258.237C129.748 258.739 129.667 259.216 129.379 259.667C129.119 260.094 128.726 260.356 128.199 260.454C126.615 260.826 125.204 260.48 123.968 259.416C122.707 258.324 122.118 256.882 122.201 255.091C122.316 252.339 122.581 248.204 122.995 242.685C122.658 242.664 122.321 242.644 121.984 242.623C121.465 242.592 121.035 242.383 120.694 241.998C120.353 241.613 120.199 241.161 120.23 240.643C120.263 240.098 120.473 239.655 120.858 239.314C121.243 238.973 121.695 238.819 122.214 238.85C122.577 238.872 122.927 238.894 123.264 238.914C123.265 238.888 123.279 238.876 123.305 238.878C123.318 238.67 123.328 238.502 123.336 238.372C123.468 236.636 123.563 235.275 123.623 234.29C123.681 233.773 123.902 233.344 124.287 233.003C124.699 232.663 125.163 232.51 125.682 232.541C126.201 232.573 126.63 232.794 126.969 233.205C127.31 233.59 127.452 234.041 127.394 234.559Z"/>
<path d="M150.417 253.863C150.335 253.11 150.292 252.279 150.287 251.369C149.561 251.581 148.665 251.716 147.6 251.774C147.262 251.776 146.795 251.778 146.197 251.781C145.834 251.783 145.574 251.785 145.418 251.785C144.119 251.818 142.978 252.136 141.994 252.739C141.165 253.263 140.713 253.85 140.639 254.5C140.566 255.332 140.803 256.006 141.351 256.523C141.952 257.091 142.746 257.373 143.733 257.368C145.006 257.361 146.265 257.029 147.508 256.373C148.752 255.717 149.721 254.88 150.417 253.863ZM138.511 242.937C138.64 242.729 138.808 242.52 139.014 242.311C139.402 241.919 139.842 241.566 140.334 241.252C141.861 240.23 143.664 239.727 145.742 239.741C146.99 239.735 148.068 239.833 148.979 240.036C150.123 240.315 151.087 240.778 151.87 241.423C153.618 242.817 154.384 245.047 154.167 248.114C153.974 250.869 154.024 252.934 154.317 254.31C154.637 255.737 155.252 256.617 156.163 256.95C156.658 257.129 157.01 257.452 157.22 257.918C157.457 258.385 157.485 258.865 157.306 259.36C157.153 259.854 156.843 260.22 156.377 260.456C155.91 260.666 155.43 260.682 154.935 260.503C153.712 260.094 152.734 259.371 152.001 258.336C151.922 258.233 151.843 258.116 151.765 257.987C150.679 258.954 149.436 259.727 148.036 260.306C146.636 260.859 145.222 261.14 143.793 261.147C141.74 261.185 140.022 260.531 138.638 259.188C137.279 257.818 136.699 256.145 136.896 254.17C137.068 252.272 138.086 250.734 139.95 249.555C141.529 248.559 143.319 248.043 145.319 248.006C145.527 248.005 145.826 248.003 146.216 248.001C146.761 247.998 147.177 247.996 147.463 247.994C148.45 247.963 149.177 247.829 149.643 247.593C150.006 247.409 150.238 247.07 150.339 246.576C150.365 246.498 150.39 246.419 150.416 246.341C150.362 246.004 150.295 245.693 150.216 245.407C150.058 244.966 149.822 244.617 149.509 244.359C148.83 243.791 147.569 243.512 145.724 243.522C144.399 243.503 143.296 243.795 142.416 244.397C142.157 244.554 141.924 244.738 141.718 244.946C141.666 244.999 141.627 245.038 141.601 245.064C141.318 245.481 140.916 245.743 140.397 245.85C139.878 245.957 139.397 245.868 138.954 245.585C138.537 245.275 138.275 244.861 138.168 244.342C138.087 243.823 138.202 243.355 138.511 242.937Z"/>
<path d="M167.474 234.338C167.547 235.349 167.632 236.723 167.731 238.462C167.733 238.487 167.737 238.552 167.745 238.656C167.752 238.76 167.746 238.851 167.725 238.931L167.728 238.97C168.713 238.899 169.542 238.84 170.216 238.791C170.76 238.752 171.227 238.901 171.615 239.238C172.004 239.575 172.218 240.015 172.257 240.559C172.294 241.078 172.145 241.531 171.808 241.92C171.471 242.309 171.031 242.523 170.486 242.562C169.813 242.61 168.97 242.67 167.96 242.743C168.276 248.242 168.557 252.338 168.802 255.029C168.843 255.599 169.041 256.002 169.397 256.237C169.724 256.448 170.066 256.488 170.421 256.359C170.903 256.168 171.373 256.186 171.832 256.414C172.317 256.639 172.643 257.007 172.81 257.516C173 257.997 172.983 258.48 172.757 258.965C172.556 259.422 172.2 259.734 171.691 259.901C170.17 260.479 168.726 260.322 167.36 259.43C165.966 258.515 165.191 257.164 165.037 255.377C164.788 252.634 164.505 248.5 164.186 242.975C163.85 242.999 163.513 243.023 163.176 243.047C162.658 243.084 162.204 242.935 161.815 242.598C161.426 242.261 161.213 241.833 161.176 241.315C161.137 240.771 161.286 240.304 161.623 239.916C161.96 239.527 162.387 239.314 162.905 239.277C163.268 239.251 163.618 239.225 163.955 239.201C163.953 239.175 163.965 239.162 163.991 239.16C163.976 238.952 163.964 238.784 163.955 238.654C163.856 236.916 163.771 235.555 163.701 234.57C163.689 234.05 163.852 233.595 164.189 233.207C164.552 232.816 164.992 232.602 165.51 232.565C166.029 232.528 166.483 232.69 166.874 233.053C167.263 233.39 167.463 233.818 167.474 234.338Z"/>
<path d="M193.23 244.327C192.766 242.843 192.07 241.771 191.141 241.11C190.125 240.383 188.831 240.127 187.261 240.34C185.172 240.598 183.744 241.474 182.977 242.968C182.564 243.784 182.333 244.786 182.285 245.972C183.568 245.771 185.277 245.513 187.41 245.197C188.002 245.116 188.633 245.03 189.302 244.939C190.56 244.742 191.87 244.538 193.23 244.327ZM182.678 249.734C183.106 251.144 183.82 252.253 184.822 253.061C186.028 254.024 187.405 254.414 188.953 254.229C190.527 254.042 191.936 253.509 193.18 252.632C193.538 252.374 193.854 252.095 194.128 251.795C194.22 251.704 194.289 251.629 194.333 251.571C194.356 251.541 194.38 251.525 194.405 251.522C194.717 251.112 195.13 250.872 195.645 250.802C196.16 250.732 196.622 250.853 197.031 251.165C197.441 251.476 197.68 251.889 197.75 252.404C197.82 252.919 197.701 253.394 197.393 253.829C197.349 253.887 197.292 253.948 197.221 254.01C197.11 254.156 196.986 254.304 196.849 254.454C196.409 254.881 195.914 255.289 195.364 255.678C193.624 256.963 191.644 257.731 189.423 257.98C186.816 258.282 184.486 257.629 182.432 256.021C180.25 254.246 178.977 251.731 178.614 248.477C178.28 245.638 178.61 243.247 179.604 241.302C180.964 238.574 183.372 237.001 186.829 236.584C189.381 236.263 191.558 236.754 193.361 238.055C195.482 239.576 196.834 242.093 197.416 245.606C197.486 246.121 197.367 246.596 197.059 247.031C196.748 247.441 196.335 247.68 195.82 247.75L195.704 247.766C195.652 247.773 195.577 247.796 195.477 247.836C195.4 247.847 195.349 247.854 195.323 247.857C194.911 247.913 194.486 247.971 194.049 248.03C192.585 248.256 191.185 248.472 189.85 248.68C189.181 248.771 188.55 248.857 187.958 248.937C185.751 249.29 183.991 249.555 182.678 249.734Z"/>
</mask>
<path d="M112.028 237.029C111.948 235.839 111.346 234.831 110.222 234.003C109.025 233.139 107.545 232.632 105.783 232.48C104.025 232.303 102.514 232.539 101.25 233.186C100.074 233.766 99.4026 234.596 99.2357 235.674C99.1057 236.47 99.136 237.142 99.3264 237.691C99.5201 238.214 99.9026 238.696 100.474 239.137C100.997 239.546 101.731 239.943 102.677 240.328C103.349 240.6 104.363 240.955 105.721 241.394C105.743 241.423 105.78 241.441 105.832 241.448L105.948 241.463C107.354 241.934 108.405 242.307 109.103 242.582C110.322 243.081 111.315 243.604 112.082 244.149C114.355 245.808 115.3 248.002 114.918 250.729C114.529 253.508 113.144 255.594 110.761 256.986C108.75 258.138 106.399 258.591 103.706 258.345C101.091 258.108 98.8313 257.25 96.9283 255.771C94.7139 254.067 93.5137 251.919 93.3279 249.327C93.292 248.798 93.4444 248.334 93.7849 247.933C94.1546 247.509 94.6037 247.28 95.1324 247.244C95.6611 247.208 96.1243 247.373 96.5219 247.739C96.9487 248.083 97.1799 248.52 97.2158 249.048C97.3177 250.477 98.0233 251.695 99.3327 252.704C100.616 253.71 102.203 254.297 104.094 254.465C105.933 254.627 107.504 254.334 108.807 253.587C110.11 252.84 110.859 251.719 111.054 250.225C111.141 249.555 111.083 248.997 110.879 248.551C110.701 248.109 110.349 247.696 109.822 247.313C109.292 246.956 108.568 246.586 107.648 246.204C107.05 245.969 106.085 245.633 104.753 245.198C104.705 245.165 104.655 245.146 104.604 245.139C104.578 245.135 104.539 245.13 104.488 245.124C103.03 244.645 101.929 244.253 101.183 243.946C99.916 243.414 98.8782 242.833 98.0695 242.203C95.7879 240.412 94.8952 238.016 95.3915 235.016C95.7814 232.63 97.1524 230.857 99.5047 229.696C101.411 228.74 103.608 228.371 106.094 228.591C108.607 228.814 110.749 229.565 112.521 230.844C114.652 232.38 115.781 234.374 115.906 236.827C115.942 237.356 115.777 237.819 115.411 238.217C115.044 238.614 114.597 238.831 114.068 238.867C113.539 238.903 113.076 238.738 112.679 238.371C112.281 238.005 112.064 237.558 112.028 237.029Z" fill="#D29A63" style="fill:#D29A63;fill:color(display-p3 0.8250 0.6051 0.3884);fill-opacity:1;"/>
<path d="M127.394 234.559C127.333 235.57 127.236 236.944 127.104 238.679C127.103 238.705 127.099 238.77 127.092 238.874C127.086 238.978 127.068 239.068 127.037 239.144L127.035 239.183C128.02 239.243 128.85 239.293 129.524 239.334C130.069 239.368 130.512 239.577 130.852 239.962C131.193 240.347 131.347 240.812 131.314 241.356C131.283 241.875 131.074 242.305 130.689 242.646C130.304 242.987 129.839 243.141 129.294 243.108C128.62 243.067 127.777 243.015 126.766 242.954C126.353 248.447 126.091 252.543 125.979 255.243C125.944 255.814 126.087 256.239 126.409 256.519C126.706 256.771 127.039 256.857 127.408 256.775C127.91 256.649 128.374 256.73 128.799 257.016C129.25 257.304 129.525 257.711 129.623 258.237C129.748 258.739 129.667 259.216 129.379 259.667C129.119 260.094 128.726 260.356 128.199 260.454C126.615 260.826 125.204 260.48 123.968 259.416C122.707 258.324 122.118 256.882 122.201 255.091C122.316 252.339 122.581 248.204 122.995 242.685C122.658 242.664 122.321 242.644 121.984 242.623C121.465 242.592 121.035 242.383 120.694 241.998C120.353 241.613 120.199 241.161 120.23 240.643C120.263 240.098 120.473 239.655 120.858 239.314C121.243 238.973 121.695 238.819 122.214 238.85C122.577 238.872 122.927 238.894 123.264 238.914C123.265 238.888 123.279 238.876 123.305 238.878C123.318 238.67 123.328 238.502 123.336 238.372C123.468 236.636 123.563 235.275 123.623 234.29C123.681 233.773 123.902 233.344 124.287 233.003C124.699 232.663 125.163 232.51 125.682 232.541C126.201 232.573 126.63 232.794 126.969 233.205C127.31 233.59 127.452 234.041 127.394 234.559Z" fill="#D29A63" style="fill:#D29A63;fill:color(display-p3 0.8250 0.6051 0.3884);fill-opacity:1;"/>
<path d="M150.417 253.863C150.335 253.11 150.292 252.279 150.287 251.369C149.561 251.581 148.665 251.716 147.6 251.774C147.262 251.776 146.795 251.778 146.197 251.781C145.834 251.783 145.574 251.785 145.418 251.785C144.119 251.818 142.978 252.136 141.994 252.739C141.165 253.263 140.713 253.85 140.639 254.5C140.566 255.332 140.803 256.006 141.351 256.523C141.952 257.091 142.746 257.373 143.733 257.368C145.006 257.361 146.265 257.029 147.508 256.373C148.752 255.717 149.721 254.88 150.417 253.863ZM138.511 242.937C138.64 242.729 138.808 242.52 139.014 242.311C139.402 241.919 139.842 241.566 140.334 241.252C141.861 240.23 143.664 239.727 145.742 239.741C146.99 239.735 148.068 239.833 148.979 240.036C150.123 240.315 151.087 240.778 151.87 241.423C153.618 242.817 154.384 245.047 154.167 248.114C153.974 250.869 154.024 252.934 154.317 254.31C154.637 255.737 155.252 256.617 156.163 256.95C156.658 257.129 157.01 257.452 157.22 257.918C157.457 258.385 157.485 258.865 157.306 259.36C157.153 259.854 156.843 260.22 156.377 260.456C155.91 260.666 155.43 260.682 154.935 260.503C153.712 260.094 152.734 259.371 152.001 258.336C151.922 258.233 151.843 258.116 151.765 257.987C150.679 258.954 149.436 259.727 148.036 260.306C146.636 260.859 145.222 261.14 143.793 261.147C141.74 261.185 140.022 260.531 138.638 259.188C137.279 257.818 136.699 256.145 136.896 254.17C137.068 252.272 138.086 250.734 139.95 249.555C141.529 248.559 143.319 248.043 145.319 248.006C145.527 248.005 145.826 248.003 146.216 248.001C146.761 247.998 147.177 247.996 147.463 247.994C148.45 247.963 149.177 247.829 149.643 247.593C150.006 247.409 150.238 247.07 150.339 246.576C150.365 246.498 150.39 246.419 150.416 246.341C150.362 246.004 150.295 245.693 150.216 245.407C150.058 244.966 149.822 244.617 149.509 244.359C148.83 243.791 147.569 243.512 145.724 243.522C144.399 243.503 143.296 243.795 142.416 244.397C142.157 244.554 141.924 244.738 141.718 244.946C141.666 244.999 141.627 245.038 141.601 245.064C141.318 245.481 140.916 245.743 140.397 245.85C139.878 245.957 139.397 245.868 138.954 245.585C138.537 245.275 138.275 244.861 138.168 244.342C138.087 243.823 138.202 243.355 138.511 242.937Z" fill="#D29A63" style="fill:#D29A63;fill:color(display-p3 0.8250 0.6051 0.3884);fill-opacity:1;"/>
<path d="M167.474 234.338C167.547 235.349 167.632 236.723 167.731 238.462C167.733 238.487 167.737 238.552 167.745 238.656C167.752 238.76 167.746 238.851 167.725 238.931L167.728 238.97C168.713 238.899 169.542 238.84 170.216 238.791C170.76 238.752 171.227 238.901 171.615 239.238C172.004 239.575 172.218 240.015 172.257 240.559C172.294 241.078 172.145 241.531 171.808 241.92C171.471 242.309 171.031 242.523 170.486 242.562C169.813 242.61 168.97 242.67 167.96 242.743C168.276 248.242 168.557 252.338 168.802 255.029C168.843 255.599 169.041 256.002 169.397 256.237C169.724 256.448 170.066 256.488 170.421 256.359C170.903 256.168 171.373 256.186 171.832 256.414C172.317 256.639 172.643 257.007 172.81 257.516C173 257.997 172.983 258.48 172.757 258.965C172.556 259.422 172.2 259.734 171.691 259.901C170.17 260.479 168.726 260.322 167.36 259.43C165.966 258.515 165.191 257.164 165.037 255.377C164.788 252.634 164.505 248.5 164.186 242.975C163.85 242.999 163.513 243.023 163.176 243.047C162.658 243.084 162.204 242.935 161.815 242.598C161.426 242.261 161.213 241.833 161.176 241.315C161.137 240.771 161.286 240.304 161.623 239.916C161.96 239.527 162.387 239.314 162.905 239.277C163.268 239.251 163.618 239.225 163.955 239.201C163.953 239.175 163.965 239.162 163.991 239.16C163.976 238.952 163.964 238.784 163.955 238.654C163.856 236.916 163.771 235.555 163.701 234.57C163.689 234.05 163.852 233.595 164.189 233.207C164.552 232.816 164.992 232.602 165.51 232.565C166.029 232.528 166.483 232.69 166.874 233.053C167.263 233.39 167.463 233.818 167.474 234.338Z" fill="#D29A63" style="fill:#D29A63;fill:color(display-p3 0.8250 0.6051 0.3884);fill-opacity:1;"/>
<path d="M193.23 244.327C192.766 242.843 192.07 241.771 191.141 241.11C190.125 240.383 188.831 240.127 187.261 240.34C185.172 240.598 183.744 241.474 182.977 242.968C182.564 243.784 182.333 244.786 182.285 245.972C183.568 245.771 185.277 245.513 187.41 245.197C188.002 245.116 188.633 245.03 189.302 244.939C190.56 244.742 191.87 244.538 193.23 244.327ZM182.678 249.734C183.106 251.144 183.82 252.253 184.822 253.061C186.028 254.024 187.405 254.414 188.953 254.229C190.527 254.042 191.936 253.509 193.18 252.632C193.538 252.374 193.854 252.095 194.128 251.795C194.22 251.704 194.289 251.629 194.333 251.571C194.356 251.541 194.38 251.525 194.405 251.522C194.717 251.112 195.13 250.872 195.645 250.802C196.16 250.732 196.622 250.853 197.031 251.165C197.441 251.476 197.68 251.889 197.75 252.404C197.82 252.919 197.701 253.394 197.393 253.829C197.349 253.887 197.292 253.948 197.221 254.01C197.11 254.156 196.986 254.304 196.849 254.454C196.409 254.881 195.914 255.289 195.364 255.678C193.624 256.963 191.644 257.731 189.423 257.98C186.816 258.282 184.486 257.629 182.432 256.021C180.25 254.246 178.977 251.731 178.614 248.477C178.28 245.638 178.61 243.247 179.604 241.302C180.964 238.574 183.372 237.001 186.829 236.584C189.381 236.263 191.558 236.754 193.361 238.055C195.482 239.576 196.834 242.093 197.416 245.606C197.486 246.121 197.367 246.596 197.059 247.031C196.748 247.441 196.335 247.68 195.82 247.75L195.704 247.766C195.652 247.773 195.577 247.796 195.477 247.836C195.4 247.847 195.349 247.854 195.323 247.857C194.911 247.913 194.486 247.971 194.049 248.03C192.585 248.256 191.185 248.472 189.85 248.68C189.181 248.771 188.55 248.857 187.958 248.937C185.751 249.29 183.991 249.555 182.678 249.734Z" fill="#D29A63" style="fill:#D29A63;fill:color(display-p3 0.8250 0.6051 0.3884);fill-opacity:1;"/>
<path d="M112.028 237.029C111.948 235.839 111.346 234.831 110.222 234.003C109.025 233.139 107.545 232.632 105.783 232.48C104.025 232.303 102.514 232.539 101.25 233.186C100.074 233.766 99.4026 234.596 99.2357 235.674C99.1057 236.47 99.136 237.142 99.3264 237.691C99.5201 238.214 99.9026 238.696 100.474 239.137C100.997 239.546 101.731 239.943 102.677 240.328C103.349 240.6 104.363 240.955 105.721 241.394C105.743 241.423 105.78 241.441 105.832 241.448L105.948 241.463C107.354 241.934 108.405 242.307 109.103 242.582C110.322 243.081 111.315 243.604 112.082 244.149C114.355 245.808 115.3 248.002 114.918 250.729C114.529 253.508 113.144 255.594 110.761 256.986C108.75 258.138 106.399 258.591 103.706 258.345C101.091 258.108 98.8313 257.25 96.9283 255.771C94.7139 254.067 93.5137 251.919 93.3279 249.327C93.292 248.798 93.4444 248.334 93.7849 247.933C94.1546 247.509 94.6037 247.28 95.1324 247.244C95.6611 247.208 96.1243 247.373 96.5219 247.739C96.9487 248.083 97.1799 248.52 97.2158 249.048C97.3177 250.477 98.0233 251.695 99.3327 252.704C100.616 253.71 102.203 254.297 104.094 254.465C105.933 254.627 107.504 254.334 108.807 253.587C110.11 252.84 110.859 251.719 111.054 250.225C111.141 249.555 111.083 248.997 110.879 248.551C110.701 248.109 110.349 247.696 109.822 247.313C109.292 246.956 108.568 246.586 107.648 246.204C107.05 245.969 106.085 245.633 104.753 245.198C104.705 245.165 104.655 245.146 104.604 245.139C104.578 245.135 104.539 245.13 104.488 245.124C103.03 244.645 101.929 244.253 101.183 243.946C99.916 243.414 98.8782 242.833 98.0695 242.203C95.7879 240.412 94.8952 238.016 95.3915 235.016C95.7814 232.63 97.1524 230.857 99.5047 229.696C101.411 228.74 103.608 228.371 106.094 228.591C108.607 228.814 110.749 229.565 112.521 230.844C114.652 232.38 115.781 234.374 115.906 236.827C115.942 237.356 115.777 237.819 115.411 238.217C115.044 238.614 114.597 238.831 114.068 238.867C113.539 238.903 113.076 238.738 112.679 238.371C112.281 238.005 112.064 237.558 112.028 237.029Z" stroke="#D29A63" style="stroke:#D29A63;stroke:color(display-p3 0.8250 0.6051 0.3884);stroke-opacity:1;" stroke-width="1.7" mask="url(#path-16-outside-3_605_18178)"/>
<path d="M127.394 234.559C127.333 235.57 127.236 236.944 127.104 238.679C127.103 238.705 127.099 238.77 127.092 238.874C127.086 238.978 127.068 239.068 127.037 239.144L127.035 239.183C128.02 239.243 128.85 239.293 129.524 239.334C130.069 239.368 130.512 239.577 130.852 239.962C131.193 240.347 131.347 240.812 131.314 241.356C131.283 241.875 131.074 242.305 130.689 242.646C130.304 242.987 129.839 243.141 129.294 243.108C128.62 243.067 127.777 243.015 126.766 242.954C126.353 248.447 126.091 252.543 125.979 255.243C125.944 255.814 126.087 256.239 126.409 256.519C126.706 256.771 127.039 256.857 127.408 256.775C127.91 256.649 128.374 256.73 128.799 257.016C129.25 257.304 129.525 257.711 129.623 258.237C129.748 258.739 129.667 259.216 129.379 259.667C129.119 260.094 128.726 260.356 128.199 260.454C126.615 260.826 125.204 260.48 123.968 259.416C122.707 258.324 122.118 256.882 122.201 255.091C122.316 252.339 122.581 248.204 122.995 242.685C122.658 242.664 122.321 242.644 121.984 242.623C121.465 242.592 121.035 242.383 120.694 241.998C120.353 241.613 120.199 241.161 120.23 240.643C120.263 240.098 120.473 239.655 120.858 239.314C121.243 238.973 121.695 238.819 122.214 238.85C122.577 238.872 122.927 238.894 123.264 238.914C123.265 238.888 123.279 238.876 123.305 238.878C123.318 238.67 123.328 238.502 123.336 238.372C123.468 236.636 123.563 235.275 123.623 234.29C123.681 233.773 123.902 233.344 124.287 233.003C124.699 232.663 125.163 232.51 125.682 232.541C126.201 232.573 126.63 232.794 126.969 233.205C127.31 233.59 127.452 234.041 127.394 234.559Z" stroke="#D29A63" style="stroke:#D29A63;stroke:color(display-p3 0.8250 0.6051 0.3884);stroke-opacity:1;" stroke-width="1.7" mask="url(#path-16-outside-3_605_18178)"/>
<path d="M150.417 253.863C150.335 253.11 150.292 252.279 150.287 251.369C149.561 251.581 148.665 251.716 147.6 251.774C147.262 251.776 146.795 251.778 146.197 251.781C145.834 251.783 145.574 251.785 145.418 251.785C144.119 251.818 142.978 252.136 141.994 252.739C141.165 253.263 140.713 253.85 140.639 254.5C140.566 255.332 140.803 256.006 141.351 256.523C141.952 257.091 142.746 257.373 143.733 257.368C145.006 257.361 146.265 257.029 147.508 256.373C148.752 255.717 149.721 254.88 150.417 253.863ZM138.511 242.937C138.64 242.729 138.808 242.52 139.014 242.311C139.402 241.919 139.842 241.566 140.334 241.252C141.861 240.23 143.664 239.727 145.742 239.741C146.99 239.735 148.068 239.833 148.979 240.036C150.123 240.315 151.087 240.778 151.87 241.423C153.618 242.817 154.384 245.047 154.167 248.114C153.974 250.869 154.024 252.934 154.317 254.31C154.637 255.737 155.252 256.617 156.163 256.95C156.658 257.129 157.01 257.452 157.22 257.918C157.457 258.385 157.485 258.865 157.306 259.36C157.153 259.854 156.843 260.22 156.377 260.456C155.91 260.666 155.43 260.682 154.935 260.503C153.712 260.094 152.734 259.371 152.001 258.336C151.922 258.233 151.843 258.116 151.765 257.987C150.679 258.954 149.436 259.727 148.036 260.306C146.636 260.859 145.222 261.14 143.793 261.147C141.74 261.185 140.022 260.531 138.638 259.188C137.279 257.818 136.699 256.145 136.896 254.17C137.068 252.272 138.086 250.734 139.95 249.555C141.529 248.559 143.319 248.043 145.319 248.006C145.527 248.005 145.826 248.003 146.216 248.001C146.761 247.998 147.177 247.996 147.463 247.994C148.45 247.963 149.177 247.829 149.643 247.593C150.006 247.409 150.238 247.07 150.339 246.576C150.365 246.498 150.39 246.419 150.416 246.341C150.362 246.004 150.295 245.693 150.216 245.407C150.058 244.966 149.822 244.617 149.509 244.359C148.83 243.791 147.569 243.512 145.724 243.522C144.399 243.503 143.296 243.795 142.416 244.397C142.157 244.554 141.924 244.738 141.718 244.946C141.666 244.999 141.627 245.038 141.601 245.064C141.318 245.481 140.916 245.743 140.397 245.85C139.878 245.957 139.397 245.868 138.954 245.585C138.537 245.275 138.275 244.861 138.168 244.342C138.087 243.823 138.202 243.355 138.511 242.937Z" stroke="#D29A63" style="stroke:#D29A63;stroke:color(display-p3 0.8250 0.6051 0.3884);stroke-opacity:1;" stroke-width="1.7" mask="url(#path-16-outside-3_605_18178)"/>
<path d="M167.474 234.338C167.547 235.349 167.632 236.723 167.731 238.462C167.733 238.487 167.737 238.552 167.745 238.656C167.752 238.76 167.746 238.851 167.725 238.931L167.728 238.97C168.713 238.899 169.542 238.84 170.216 238.791C170.76 238.752 171.227 238.901 171.615 239.238C172.004 239.575 172.218 240.015 172.257 240.559C172.294 241.078 172.145 241.531 171.808 241.92C171.471 242.309 171.031 242.523 170.486 242.562C169.813 242.61 168.97 242.67 167.96 242.743C168.276 248.242 168.557 252.338 168.802 255.029C168.843 255.599 169.041 256.002 169.397 256.237C169.724 256.448 170.066 256.488 170.421 256.359C170.903 256.168 171.373 256.186 171.832 256.414C172.317 256.639 172.643 257.007 172.81 257.516C173 257.997 172.983 258.48 172.757 258.965C172.556 259.422 172.2 259.734 171.691 259.901C170.17 260.479 168.726 260.322 167.36 259.43C165.966 258.515 165.191 257.164 165.037 255.377C164.788 252.634 164.505 248.5 164.186 242.975C163.85 242.999 163.513 243.023 163.176 243.047C162.658 243.084 162.204 242.935 161.815 242.598C161.426 242.261 161.213 241.833 161.176 241.315C161.137 240.771 161.286 240.304 161.623 239.916C161.96 239.527 162.387 239.314 162.905 239.277C163.268 239.251 163.618 239.225 163.955 239.201C163.953 239.175 163.965 239.162 163.991 239.16C163.976 238.952 163.964 238.784 163.955 238.654C163.856 236.916 163.771 235.555 163.701 234.57C163.689 234.05 163.852 233.595 164.189 233.207C164.552 232.816 164.992 232.602 165.51 232.565C166.029 232.528 166.483 232.69 166.874 233.053C167.263 233.39 167.463 233.818 167.474 234.338Z" stroke="#D29A63" style="stroke:#D29A63;stroke:color(display-p3 0.8250 0.6051 0.3884);stroke-opacity:1;" stroke-width="1.7" mask="url(#path-16-outside-3_605_18178)"/>
<path d="M193.23 244.327C192.766 242.843 192.07 241.771 191.141 241.11C190.125 240.383 188.831 240.127 187.261 240.34C185.172 240.598 183.744 241.474 182.977 242.968C182.564 243.784 182.333 244.786 182.285 245.972C183.568 245.771 185.277 245.513 187.41 245.197C188.002 245.116 188.633 245.03 189.302 244.939C190.56 244.742 191.87 244.538 193.23 244.327ZM182.678 249.734C183.106 251.144 183.82 252.253 184.822 253.061C186.028 254.024 187.405 254.414 188.953 254.229C190.527 254.042 191.936 253.509 193.18 252.632C193.538 252.374 193.854 252.095 194.128 251.795C194.22 251.704 194.289 251.629 194.333 251.571C194.356 251.541 194.38 251.525 194.405 251.522C194.717 251.112 195.13 250.872 195.645 250.802C196.16 250.732 196.622 250.853 197.031 251.165C197.441 251.476 197.68 251.889 197.75 252.404C197.82 252.919 197.701 253.394 197.393 253.829C197.349 253.887 197.292 253.948 197.221 254.01C197.11 254.156 196.986 254.304 196.849 254.454C196.409 254.881 195.914 255.289 195.364 255.678C193.624 256.963 191.644 257.731 189.423 257.98C186.816 258.282 184.486 257.629 182.432 256.021C180.25 254.246 178.977 251.731 178.614 248.477C178.28 245.638 178.61 243.247 179.604 241.302C180.964 238.574 183.372 237.001 186.829 236.584C189.381 236.263 191.558 236.754 193.361 238.055C195.482 239.576 196.834 242.093 197.416 245.606C197.486 246.121 197.367 246.596 197.059 247.031C196.748 247.441 196.335 247.68 195.82 247.75L195.704 247.766C195.652 247.773 195.577 247.796 195.477 247.836C195.4 247.847 195.349 247.854 195.323 247.857C194.911 247.913 194.486 247.971 194.049 248.03C192.585 248.256 191.185 248.472 189.85 248.68C189.181 248.771 188.55 248.857 187.958 248.937C185.751 249.29 183.991 249.555 182.678 249.734Z" stroke="#D29A63" style="stroke:#D29A63;stroke:color(display-p3 0.8250 0.6051 0.3884);stroke-opacity:1;" stroke-width="1.7" mask="url(#path-16-outside-3_605_18178)"/>
<defs>
<linearGradient id="paint0_linear_605_18178" x1="167.258" y1="58.5305" x2="106.983" y2="58.5305" gradientUnits="userSpaceOnUse">
<stop stop-color="#A5794E" style="stop-color:#A5794E;stop-color:color(display-p3 0.6458 0.4734 0.3041);stop-opacity:1;"/>
<stop offset="0.4375" stop-color="#A5794E" stop-opacity="0" style="stop-color:none;stop-opacity:0;"/>
</linearGradient>
</defs>
</svg>
