<svg width="115" height="100" viewBox="0 0 115 100" fill="none" xmlns="http://www.w3.org/2000/svg">
<path d="M114.801 57.2945C114.801 92.298 105.071 99.0515 57.3962 99.0515C9.72098 99.0515 -0.00866699 92.298 -0.00866699 57.2945C-0.00866699 25.6516 25.6924 0 57.3962 0C89.1 0 114.801 25.6516 114.801 57.2945Z" fill="#D29A63" style="fill:#D29A63;fill:color(display-p3 0.8250 0.6051 0.3884);fill-opacity:1;"/>
<path fill-rule="evenodd" clip-rule="evenodd" d="M114.748 54.7993C113.918 86.0993 103.071 92.298 57.3962 92.298C11.7212 92.298 0.874557 86.0993 0.0447977 54.7992C0.00927569 55.6265 -0.00866699 56.4584 -0.00866699 57.2945C-0.00866699 92.298 9.72098 99.0515 57.3962 99.0515C105.071 99.0515 114.801 92.298 114.801 57.2945C114.801 56.4585 114.783 55.6266 114.748 54.7993Z" fill="#B48252" style="fill:#B48252;fill:color(display-p3 0.7042 0.5103 0.3198);fill-opacity:1;"/>
<ellipse cx="73.0621" cy="59.6561" rx="25.9807" ry="28.1396" fill="#624428" style="fill:#624428;fill:color(display-p3 0.3833 0.2681 0.1549);fill-opacity:1;"/>
<path opacity="0.2" fill-rule="evenodd" clip-rule="evenodd" d="M74.2857 87.7651C76.8666 78.8937 78.2583 69.4509 78.2583 59.656C78.2583 49.8612 76.8666 40.4185 74.2857 31.5471C73.8802 31.5267 73.4723 31.5164 73.0622 31.5164C58.7134 31.5164 47.0814 44.115 47.0814 59.6561C47.0814 75.1972 58.7134 87.7957 73.0622 87.7957C73.4723 87.7957 73.8802 87.7854 74.2857 87.7651Z" fill="url(#paint0_linear_605_18179)" style=""/>
<path fill-rule="evenodd" clip-rule="evenodd" d="M68.9053 87.4375C81.278 85.2825 90.7291 73.6647 90.7291 59.6561C90.7291 45.6474 81.278 34.0296 68.9053 31.8747C70.2588 31.6389 71.6473 31.5164 73.0621 31.5164C87.4109 31.5164 99.0428 44.115 99.0428 59.6561C99.0428 75.1972 87.4109 87.7957 73.0621 87.7957C71.6472 87.7957 70.2588 87.6732 68.9053 87.4375Z" fill="#99724D" style="fill:#99724D;fill:color(display-p3 0.6000 0.4486 0.3000);fill-opacity:1;"/>
<defs>
<linearGradient id="paint0_linear_605_18179" x1="78.2583" y1="58.5305" x2="17.983" y2="58.5305" gradientUnits="userSpaceOnUse">
<stop stop-color="#A5794E" style="stop-color:#A5794E;stop-color:color(display-p3 0.6458 0.4734 0.3041);stop-opacity:1;"/>
<stop offset="0.4375" stop-color="#A5794E" stop-opacity="0" style="stop-color:none;stop-opacity:0;"/>
</linearGradient>
</defs>
</svg>
