<svg xmlns="http://www.w3.org/2000/svg" width="430" height="430" style="width:100%;height:100%;transform:translate3d(0,0,0);content-visibility:visible" viewBox="0 0 430 430"><defs><clipPath id="j"><path d="M0 0h430v430H0z"/></clipPath><clipPath id="m"><path d="M0 0h430v430H0z"/></clipPath><clipPath id="g"><path d="M0 0h430v430H0z"/></clipPath><clipPath id="h"><path d="M0 0h430v430H0z"/></clipPath><clipPath id="k"><path d="M0 0h430v430H0z"/></clipPath><clipPath id="i"><path d="M0 0h430v430H0z"/></clipPath><filter id="a" width="100%" height="100%" x="0%" y="0%" filterUnits="objectBoundingBox"><feComponentTransfer in="SourceGraphic"><feFuncA tableValues="1.0 0.0" type="table"/></feComponentTransfer></filter><filter id="c" width="100%" height="100%" x="0%" y="0%" filterUnits="objectBoundingBox"><feComponentTransfer in="SourceGraphic"><feFuncA tableValues="1.0 0.0" type="table"/></feComponentTransfer></filter><filter id="e" width="100%" height="100%" x="0%" y="0%" filterUnits="objectBoundingBox"><feComponentTransfer in="SourceGraphic"><feFuncA tableValues="1.0 0.0" type="table"/></feComponentTransfer></filter><mask id="o" mask-type="alpha"><g filter="url(#a)"><path fill="#fff" d="M0 0h430v430H0z" opacity="0"/><use xmlns:ns1="http://www.w3.org/1999/xlink" ns1:href="#b"/></g></mask><mask id="n" mask-type="alpha"><g filter="url(#c)"><path fill="#fff" d="M0 0h430v430H0z" opacity="0"/><use xmlns:ns2="http://www.w3.org/1999/xlink" ns2:href="#d"/></g></mask><mask id="l" mask-type="alpha"><g filter="url(#e)"><path fill="#fff" d="M0 0h430v430H0z" opacity="0"/><use xmlns:ns3="http://www.w3.org/1999/xlink" ns3:href="#f"/></g></mask><g id="b" clip-path="url(#g)" style="display:none"><g style="display:none"><path fill-opacity="0" stroke-linecap="round" stroke-linejoin="round"/><path/></g><g style="display:none"><path fill-opacity="0" stroke-linecap="round" stroke-linejoin="round"/><path/></g></g><g id="d" clip-path="url(#h)" style="display:none"><g style="display:none"><path fill-opacity="0" stroke-linecap="round" stroke-linejoin="round"/><path/></g><g style="display:none"><path fill-opacity="0" stroke-linecap="round" stroke-linejoin="round"/><path/></g></g><g id="f" clip-path="url(#i)" style="display:block"><g style="display:block"><path fill="#FFF" d="M201.633 157.992h-72.792v-57.743h72.792v57.743z"/><path fill-opacity="0" stroke="red" stroke-linecap="round" stroke-linejoin="round" stroke-width="0" d="M201.633 157.992h-72.792v-57.743h72.792v57.743z"/></g><g style="display:block"><path fill="#FFF" d="M301.883 157.992h-72.792v-57.743h72.792v57.743z"/><path fill-opacity="0" stroke="red" stroke-linecap="round" stroke-linejoin="round" stroke-width="0" d="M301.883 157.992h-72.792v-57.743h72.792v57.743z"/></g><g style="display:block"><path fill="#FFF" d="M87.296 188.165 54.857 295.517h320.238l-32.248-106.721-46.495-.114-171.847-.425-37.209-.092z"/><path fill-opacity="0" stroke="#F00202" stroke-linecap="round" stroke-linejoin="round" stroke-width="0" d="M87.296 188.165 54.857 295.517h320.238l-32.248-106.721-46.495-.114-171.847-.425-37.209-.092z"/></g></g></defs><g clip-path="url(#j)"><g clip-path="url(#k)" style="display:block"><g mask="url(#l)" style="display:block"><path fill="none" stroke="#835C22" stroke-linecap="round" stroke-linejoin="round" stroke-width="18" d="M329.347 144.121H100.605V89.339c0-18.778 15.222-34 34-34h160.742c18.778 0 34 15.222 34 34v54.782zm0 0H100.605L54.857 295.517h320.238l-45.748-151.396z" class="primary"/></g><path fill="none" stroke="#835C22" stroke-linecap="round" stroke-linejoin="round" stroke-width="18" d="M-756.143-223.359h320.238m0-53.374v80.06m-320.238-80.06v80.06" class="primary" style="display:block" transform="translate(811 572.25)"/><path fill="none" stroke="#835C22" stroke-linecap="round" stroke-linejoin="round" stroke-width="18" d="M-609.367-409.258h-72.792v-57.743h72.792v57.743z" class="secondary" style="display:block" transform="translate(811 567.25)"/><path fill="none" stroke="#835C22" stroke-linecap="round" stroke-linejoin="round" stroke-width="18" d="M-609.367-409.258h-72.792v-57.743h72.792v57.743z" class="secondary" style="display:block" transform="translate(911.25 567.25)"/><path fill="none" stroke="#835C22" stroke-linecap="round" stroke-linejoin="round" stroke-width="18" d="m-723.704-384.085-32.439 107.352h320.238l-32.248-106.721-46.495-.114-171.847-.425-37.209-.092z" class="secondary" style="display:block" transform="translate(811 572.25)"/></g><g clip-path="url(#m)" style="display:none"><g fill="none" mask="url(#n)" style="display:none"><path class="primary"/><path class="primary"/></g><path fill="none" class="primary" style="display:none"/><g mask="url(#o)" style="display:none"><path fill="none" class="secondary"/></g><path fill="none" class="secondary" style="display:none"/><path fill="none" class="secondary" style="display:none"/></g></g></svg>