<svg xmlns="http://www.w3.org/2000/svg" width="430" height="430" style="width:100%;height:100%;transform:translate3d(0,0,0);content-visibility:visible" viewBox="0 0 430 430"><defs><clipPath id="e"><path d="M0 0h430v430H0z"/></clipPath><clipPath id="h"><path d="M0 0h430v430H0z"/></clipPath><clipPath id="f"><path d="M0 0h430v430H0z"/></clipPath><filter id="a" width="100%" height="100%" x="0%" y="0%" filterUnits="objectBoundingBox"><feComponentTransfer in="SourceGraphic"><feFuncA tableValues="1.0 0.0" type="table"/></feComponentTransfer></filter><filter id="c" width="100%" height="100%" x="0%" y="0%" filterUnits="objectBoundingBox"><feComponentTransfer in="SourceGraphic"><feFuncA tableValues="1.0 0.0" type="table"/></feComponentTransfer></filter><mask id="i" mask-type="alpha"><g filter="url(#a)"><path fill="#fff" d="M0 0h430v430H0z" opacity="0"/><use xmlns:ns1="http://www.w3.org/1999/xlink" ns1:href="#b"/></g></mask><mask id="g" mask-type="alpha"><g filter="url(#c)"><path fill="#fff" d="M0 0h430v430H0z" opacity="0"/><use xmlns:ns2="http://www.w3.org/1999/xlink" ns2:href="#d"/></g></mask><g id="b" style="display:block"><path fill="#FFF" d="M322-5.5v189H108v-189h214z"/><path fill-opacity="0" stroke="#08C189" stroke-width="0" d="M322-5.5v189H108v-189h214z"/></g><g id="d" style="display:none"><path/><path fill-opacity="0"/></g></defs><g fill="none" clip-path="url(#e)"><g clip-path="url(#f)" style="display:none"><g mask="url(#g)" style="display:none"><path class="secondary"/><path class="primary"/><path class="primary"/><path class="primary"/><path class="primary"/><path class="primary"/><path class="secondary"/><path class="secondary"/></g><g style="display:none"><path class="secondary"/><path class="secondary"/><path class="secondary"/><path class="secondary"/><path class="secondary"/><path class="secondary"/><path class="primary"/></g><g style="display:none"><path class="secondary"/><path class="primary"/><path class="secondary"/></g></g><g stroke="#835C22" stroke-linecap="round" stroke-linejoin="round" clip-path="url(#h)" style="display:block"><g stroke-width="18.06" mask="url(#i)" style="display:block"><path d="M248.5 291.071c.35-1.43.54-2.94.54-4.48 0-10.34-8.38-18.73-18.73-18.73-10.34 0-18.73 8.39-18.73 18.73 0 1.54.19 3.05.54 4.48" class="secondary"/><path d="M150.671 291.071h128.658c5.923 0 10.972 4.428 11.92 10.455l7.354 46.735H131.397l7.354-46.735c.948-6.027 5.997-10.455 11.92-10.455zm29.574-70.416h69.51c6.714 0 12.498 5.206 13.828 12.447l10.65 57.969H155.767l10.65-57.969c1.33-7.241 7.114-12.447 13.828-12.447zm40.5 20.721h-11.49" class="primary"/><path d="M180.396 348.257v26.204h-36.024v-26.204m141.256 0v26.204h-36.024v-26.204" class="primary"/><path d="M268.752 319.623h-15.71m-76.084 0h-15.71" class="secondary"/></g><g style="display:block"><path stroke-width="18.9" d="M108.254 21h213.492" class="secondary" opacity="0"/><path stroke-width="18.06" d="M108.254 52.281h213.492M108.254 83.562h213.492m-213.492 31.281h213.492m-213.492 31.62h213.492m-213.492 31.619h213.492" class="secondary" opacity="0"/><path stroke-width="18.06" d="M108.254 375.463V184.387h213.492v191.076" class="primary"/></g><g stroke-width="18.06" style="display:block"><path d="M74.735 184.387H27.98l.052-32.583 186.87-123.266 187.117 122.404v33.445h-46.354" class="secondary"/><path d="m322.5 375.425 33.165.038V165.45L215 73.433 75.502 165.45v210.013l31.998-.038" class="primary"/><path d="M255.03 155.053h-80.06v-26.687h80.06v26.687z" class="secondary"/></g></g></g></svg>