<svg xmlns="http://www.w3.org/2000/svg" width="430" height="430" style="width:100%;height:100%;transform:translate3d(0,0,0);content-visibility:visible" viewBox="0 0 430 430"><defs><clipPath id="a"><path d="M0 0h430v430H0z"/></clipPath><clipPath id="b"><path d="M0 0h430v430H0z"/></clipPath></defs><g clip-path="url(#a)"><g fill="none" stroke="#835C22" stroke-linecap="round" stroke-linejoin="round" stroke-width="17.955" clip-path="url(#b)" style="display:block"><path stroke-dasharray="12 25" d="M-81.175 0h162.35" class="secondary" style="display:block" transform="translate(162.738 211.755)"/><g style="display:block"><path d="M243.913 176.05c0 52.508 23.398 95.074 52.26 95.074s52.26-42.566 52.26-95.074c0-52.508-23.398-95.074-52.26-95.074s-52.26 42.566-52.26 95.074z" class="primary"/><path d="M281.8 176.05c0 16.594 6.435 30.047 14.373 30.047s14.373-13.453 14.373-30.047-6.435-30.047-14.373-30.047S281.8 159.456 281.8 176.05z" class="secondary"/><path d="M81.563 176.053c0-52.514 23.398-95.08 52.266-95.08m162.344.002H133.827m162.998 190.149h-52.912m-31.152-163.505h-44.248m-22.131 0h-2.12" class="primary"/></g><g style="display:block"><path d="M243.826 558.049c0 66.357.302 107.451.215 175.07-6.413-3.619-27.056-18.001-27.056-18.001l-27.056 18-27.056-18-27.057 18-27.06-18s-19.628 13.382-27.061 18c-.067-64.118-.215-108.713-.215-175.069" class="primary"/><path d="M243.914 558.119c-6.413-3.619-27.056-18.001-27.056-18.001l-27.056 18-27.055-18-27.057 18-27.061-18s-19.628 13.382-27.061 18" class="primary"/></g><path d="M81.173-99.535c0 66.357.087 131.451 0 199.07-6.413-3.619-27.056-18.001-27.056-18.001l-27.056 18-27.055-18-27.057 18-27.061-18s-19.628 13.382-27.061 18c-.067-64.118 0-132.713 0-199.069" class="primary" style="display:block" transform="translate(162.74 275.584)"/></g></g></svg>